<?xml version="1.0" encoding="UTF-8" standalone="no"?>
<!DOCTYPE svg PUBLIC "-//W3C//DTD SVG 1.1//EN" "http://www.w3.org/Graphics/SVG/1.1/DTD/svg11.dtd">
<svg width="100%" height="100%" viewBox="0 0 1724 841" version="1.1" xmlns="http://www.w3.org/2000/svg" xmlns:xlink="http://www.w3.org/1999/xlink" xml:space="preserve" style="fill-rule:evenodd;clip-rule:evenodd;stroke-miterlimit:10;">
    <metadata>
      <rdf:RDF xmlns:rdf="http://www.w3.org/1999/02/22-rdf-syntax-ns#"
               xmlns:rdfs="http://www.w3.org/2000/01/rdf-schema#"
               xmlns:dc="http://purl.org/dc/elements/1.1/">
        <rdf:Description about="https://cusy.io/images/combine-git-dvc.svg">
          <dc:title>Combine Git and DVC</dc:title>
          <dc:creator>André, Henze, Berlin</dc:creator>
          <dc:contributor>Veit Schiele, Berlin</dc:contributor>
          <dc:publisher>Cusy GmbH</dc:publisher>
          <dc:subject>Git, DVC, Machine Learning</dc:subject>
          <dc:description>Stages of collaboration between Git and DVC</dc:description>
          <dc:identifier>https://cusy.io/images/combine-git-dvc.svg</dc:identifier>
          <dc:relation>https://cusy.io/de/blog/versionskontrolle-fur-machine-learning-projekte-in-informatik-aktuell-vom-11-august-2020</dc:relation>
          <dc:source>https://cusy.io/</dc:source>
          <dc:rights>Copyright 2020–2021 Cusy GmbH</dc:rights>
          <dc:format>image/svg+xml</dc:format>
          <dc:type>Image</dc:type>
          <dc:date>2020-06-09</dc:date>
          <dc:language>en</dc:language>
        </rdf:Description>
      </rdf:RDF>
    </metadata>
    <g transform="matrix(0.359954,0,0,1,0.14017,0.447)">
        <rect x="0.219" y="559.034" width="1723" height="280.52" style="fill:rgb(182,242,0);fill-rule:nonzero;"/>
    </g>
    <g transform="matrix(1,0,0,1,5.68434e-14,0.447)">
        <path d="M233.219,729.908L418.382,642.632" style="fill:none;fill-rule:nonzero;stroke:rgb(45,123,253);stroke-width:4px;"/>
    </g>
    <g transform="matrix(1,0,0,1,5.68434e-14,0.447)">
        <path d="M409.648,638.92L418.382,642.632L415.449,651.659" style="fill:none;fill-rule:nonzero;stroke:rgb(45,123,253);stroke-width:4px;"/>
    </g>
    <g transform="matrix(1,0,0,1,5.68434e-14,0.447)">
        <path d="M411.055,683.053C411.055,693.224 402.055,701.553 391.055,701.553L254.219,701.553C243.219,701.553 234.219,693.224 234.219,683.053C234.219,672.881 243.219,664.553 254.219,664.553L391.055,664.553C402.055,664.553 411.055,672.881 411.055,683.053Z" style="fill:white;fill-rule:nonzero;"/>
    </g>
    <g transform="matrix(1,0,0,1,5.68434e-14,0.447)">
        <path d="M411.055,683.053C411.055,693.224 402.055,701.553 391.055,701.553L254.219,701.553C243.219,701.553 234.219,693.224 234.219,683.053C234.219,672.881 243.219,664.553 254.219,664.553L391.055,664.553C402.055,664.553 411.055,672.881 411.055,683.053Z" style="fill:none;fill-rule:nonzero;stroke:rgb(45,123,253);stroke-width:4px;"/>
    </g>
    <g transform="matrix(1,0,0,1,5.68434e-14,0.447)">
        <rect x="234.268" y="675.912" width="176.787" height="25.957" style="fill:none;fill-rule:nonzero;"/>
    </g>
    <g transform="matrix(1,0,0,1,5.68434e-14,0.447)">
        <path d="M245.025,684.729C245.025,683.193 245.37,682 246.06,681.147C246.75,680.295 247.664,679.869 248.805,679.869C249.861,679.869 250.779,680.259 251.559,681.039L251.595,681.039L251.595,675.909L253.485,675.909L253.485,689.409L251.721,689.409L251.685,688.239L251.649,688.239C251.193,688.743 250.753,689.094 250.327,689.292C249.9,689.49 249.393,689.589 248.806,689.589C247.714,689.589 246.811,689.151 246.097,688.275C245.381,687.399 245.025,686.217 245.025,684.729ZM251.595,686.079L251.595,683.379C251.595,682.839 251.364,682.359 250.902,681.939C250.44,681.519 249.891,681.309 249.255,681.309C247.695,681.309 246.915,682.449 246.915,684.729C246.915,685.881 247.122,686.739 247.536,687.303C247.95,687.867 248.523,688.149 249.255,688.149C249.892,688.149 250.441,687.94 250.902,687.519C251.364,687.099 251.595,686.619 251.595,686.079Z" style="fill:rgb(45,123,253);fill-rule:nonzero;"/>
    </g>
    <g transform="matrix(1,0,0,1,5.68434e-14,0.447)">
        <path d="M257.498,680.049L259.875,688.329L259.91,688.329L262.287,680.049L264.266,680.049L261.117,689.409L258.596,689.409L255.447,680.049L257.498,680.049Z" style="fill:rgb(45,123,253);fill-rule:nonzero;"/>
    </g>
    <g transform="matrix(1,0,0,1,5.68434e-14,0.447)">
        <path d="M265.239,684.729C265.239,683.157 265.617,681.955 266.373,681.12C267.13,680.286 268.191,679.869 269.56,679.869C270.4,679.869 271.269,679.959 272.169,680.139L272.169,681.759C271.329,681.483 270.507,681.345 269.703,681.345C268.875,681.345 268.255,681.615 267.841,682.155C267.427,682.695 267.219,683.553 267.219,684.729C267.219,685.929 267.438,686.793 267.875,687.321C268.312,687.849 268.982,688.113 269.883,688.113C270.662,688.113 271.454,687.945 272.258,687.609L272.258,689.229C271.418,689.469 270.578,689.589 269.738,689.589C268.299,689.589 267.187,689.178 266.408,688.356C265.628,687.534 265.239,686.325 265.239,684.729Z" style="fill:rgb(45,123,253);fill-rule:nonzero;"/>
    </g>
    <g transform="matrix(1,0,0,1,5.68434e-14,0.447)">
        <path d="M283.076,679.869C284.588,679.869 285.625,680.139 286.189,680.679C286.753,681.219 287.035,682.209 287.035,683.649L287.035,689.409L285.271,689.409L285.236,688.059L285.199,688.059C284.504,689.079 283.465,689.589 282.086,689.589C281.27,689.589 280.601,689.325 280.078,688.797C279.557,688.269 279.296,687.573 279.296,686.709C279.296,685.653 279.697,684.834 280.502,684.252C281.306,683.67 282.523,683.379 284.156,683.379L285.145,683.379L285.145,683.019C285.145,682.383 284.996,681.939 284.695,681.687C284.395,681.435 283.855,681.309 283.076,681.309C282.139,681.309 281.059,681.537 279.836,681.993L279.836,680.409C280.951,680.049 282.031,679.869 283.076,679.869ZM285.146,684.693L284.157,684.693C283.173,684.693 282.431,684.858 281.933,685.188C281.435,685.519 281.186,685.965 281.186,686.529C281.186,686.973 281.318,687.339 281.582,687.627C281.846,687.915 282.164,688.059 282.535,688.059C283.328,688.059 283.961,687.81 284.434,687.312C284.908,686.814 285.145,686.133 285.145,685.269L285.145,684.693L285.146,684.693Z" style="fill:rgb(45,123,253);fill-rule:nonzero;"/>
    </g>
    <g transform="matrix(1,0,0,1,5.68434e-14,0.447)">
        <path d="M288.998,684.729C288.998,683.193 289.342,682 290.033,681.147C290.722,680.295 291.637,679.869 292.777,679.869C293.834,679.869 294.752,680.259 295.531,681.039L295.568,681.039L295.568,675.909L297.457,675.909L297.457,689.409L295.693,689.409L295.658,688.239L295.621,688.239C295.166,688.743 294.725,689.094 294.299,689.292C293.873,689.49 293.365,689.589 292.778,689.589C291.686,689.589 290.784,689.151 290.069,688.275C289.355,687.399 288.998,686.217 288.998,684.729ZM295.569,686.079L295.569,683.379C295.569,682.839 295.337,682.359 294.876,681.939C294.413,681.519 293.864,681.309 293.229,681.309C291.669,681.309 290.889,682.449 290.889,684.729C290.889,685.881 291.096,686.739 291.51,687.303C291.924,687.867 292.497,688.149 293.229,688.149C293.865,688.149 294.414,687.94 294.876,687.519C295.336,687.099 295.569,686.619 295.569,686.079Z" style="fill:rgb(45,123,253);fill-rule:nonzero;"/>
    </g>
    <g transform="matrix(1,0,0,1,5.68434e-14,0.447)">
        <path d="M299.6,684.729C299.6,683.193 299.945,682 300.635,681.147C301.324,680.295 302.24,679.869 303.38,679.869C304.436,679.869 305.354,680.259 306.134,681.039L306.17,681.039L306.17,675.909L308.06,675.909L308.06,689.409L306.296,689.409L306.26,688.239L306.224,688.239C305.768,688.743 305.327,689.094 304.901,689.292C304.475,689.49 303.968,689.589 303.38,689.589C302.287,689.589 301.385,689.151 300.671,688.275C299.957,687.399 299.6,686.217 299.6,684.729ZM306.17,686.079L306.17,683.379C306.17,682.839 305.939,682.359 305.477,681.939C305.015,681.519 304.466,681.309 303.831,681.309C302.27,681.309 301.491,682.449 301.491,684.729C301.491,685.881 301.698,686.739 302.112,687.303C302.526,687.867 303.098,688.149 303.831,688.149C304.467,688.149 305.016,687.94 305.477,687.519C305.939,687.099 306.17,686.619 306.17,686.079Z" style="fill:rgb(45,123,253);fill-rule:nonzero;"/>
    </g>
    <g transform="matrix(1,0,0,1,5.68434e-14,0.447)">
        <path d="M322.531,682.929L322.531,689.409L320.677,689.409L320.677,684.009C320.677,682.917 320.574,682.194 320.37,681.84C320.166,681.486 319.788,681.309 319.236,681.309C318.887,681.309 318.531,681.489 318.165,681.849C317.799,682.209 317.616,682.569 317.616,682.929L317.616,689.409L315.725,689.409L315.725,680.049L317.526,680.049L317.561,681.129L317.598,681.129C318.293,680.289 319.079,679.869 319.955,679.869C320.482,679.869 320.909,679.977 321.233,680.193C321.556,680.409 321.845,680.781 322.097,681.309L322.132,681.309C322.841,680.349 323.693,679.869 324.689,679.869C325.672,679.869 326.375,680.136 326.794,680.67C327.214,681.204 327.425,682.137 327.425,683.469L327.425,689.409L325.571,689.409L325.571,684.009C325.571,682.917 325.468,682.194 325.265,681.84C325.06,681.486 324.683,681.309 324.13,681.309C323.782,681.309 323.429,681.489 323.068,681.849C322.707,682.209 322.531,682.569 322.531,682.929Z" style="fill:rgb(45,123,253);fill-rule:nonzero;"/>
    </g>
    <g transform="matrix(1,0,0,1,5.68434e-14,0.447)">
        <path d="M330.469,681.138C331.248,680.292 332.328,679.869 333.709,679.869C335.089,679.869 336.168,680.292 336.949,681.138C337.728,681.984 338.119,683.181 338.119,684.729C338.119,686.277 337.728,687.474 336.949,688.32C336.168,689.166 335.089,689.589 333.709,689.589C332.328,689.589 331.248,689.166 330.469,688.32C329.689,687.474 329.299,686.277 329.299,684.729C329.299,683.181 329.689,681.984 330.469,681.138ZM331.225,684.729C331.225,687.009 332.053,688.149 333.709,688.149C335.365,688.149 336.193,687.009 336.193,684.729C336.193,682.449 335.365,681.309 333.709,681.309C332.053,681.309 331.225,682.449 331.225,684.729Z" style="fill:rgb(45,123,253);fill-rule:nonzero;"/>
    </g>
    <g transform="matrix(1,0,0,1,5.68434e-14,0.447)">
        <path d="M339.721,684.729C339.721,683.193 340.065,682 340.756,681.147C341.445,680.295 342.36,679.869 343.5,679.869C344.557,679.869 345.475,680.259 346.254,681.039L346.291,681.039L346.291,675.909L348.18,675.909L348.18,689.409L346.416,689.409L346.381,688.239L346.344,688.239C345.889,688.743 345.448,689.094 345.022,689.292C344.596,689.49 344.088,689.589 343.501,689.589C342.409,689.589 341.507,689.151 340.792,688.275C340.077,687.399 339.721,686.217 339.721,684.729ZM346.291,686.079L346.291,683.379C346.291,682.839 346.059,682.359 345.598,681.939C345.135,681.519 344.586,681.309 343.951,681.309C342.391,681.309 341.611,682.449 341.611,684.729C341.611,685.881 341.818,686.739 342.232,687.303C342.646,687.867 343.219,688.149 343.951,688.149C344.587,688.149 345.136,687.94 345.598,687.519C346.059,687.099 346.291,686.619 346.291,686.079Z" style="fill:rgb(45,123,253);fill-rule:nonzero;"/>
    </g>
    <g transform="matrix(1,0,0,1,5.68434e-14,0.447)">
        <path d="M352.141,685.269C352.249,687.213 353.233,688.185 355.093,688.185C355.897,688.185 356.768,687.993 357.703,687.609L357.703,689.193C356.707,689.457 355.777,689.589 354.913,689.589C353.412,689.589 352.258,689.181 351.447,688.365C350.637,687.549 350.232,686.337 350.232,684.729C350.232,683.121 350.595,681.909 351.322,681.093C352.048,680.277 353.094,679.869 354.463,679.869C355.759,679.869 356.729,680.256 357.37,681.03C358.011,681.804 358.333,683.007 358.333,684.639C358.333,684.807 358.314,685.017 358.279,685.269L352.141,685.269ZM352.141,683.865L356.479,683.865C356.444,682.137 355.771,681.273 354.463,681.273C353.755,681.273 353.209,681.478 352.824,681.885C352.442,682.293 352.213,682.953 352.141,683.865Z" style="fill:rgb(45,123,253);fill-rule:nonzero;"/>
    </g>
    <g transform="matrix(1,0,0,1,5.68434e-14,0.447)">
        <rect x="361.014" y="675.909" width="1.98" height="13.5" style="fill:rgb(45,123,253);fill-rule:nonzero;"/>
    </g>
    <g transform="matrix(1,0,0,1,5.68434e-14,0.447)">
        <rect x="366.576" y="686.709" width="2.34" height="2.7" style="fill:rgb(45,123,253);fill-rule:nonzero;"/>
    </g>
    <g transform="matrix(1,0,0,1,5.68434e-14,0.447)">
        <path d="M380.328,684.729C380.328,686.217 379.972,687.399 379.258,688.275C378.543,689.151 377.641,689.589 376.549,689.589C375.492,689.589 374.574,689.199 373.795,688.419L373.759,688.419L373.759,693.369L371.869,693.369L371.869,680.049L373.633,680.049L373.669,681.219L373.705,681.219C374.16,680.715 374.601,680.364 375.027,680.166C375.453,679.968 375.961,679.869 376.548,679.869C377.688,679.869 378.603,680.295 379.293,681.147C379.985,681.999 380.328,683.193 380.328,684.729ZM373.759,686.079C373.759,686.631 373.99,687.114 374.451,687.528C374.914,687.942 375.463,688.149 376.098,688.149C376.818,688.149 377.388,687.861 377.808,687.285C378.228,686.709 378.439,685.857 378.439,684.729C378.439,682.449 377.658,681.309 376.098,681.309C375.462,681.309 374.913,681.516 374.451,681.93C373.99,682.344 373.759,682.827 373.759,683.379L373.759,686.079Z" style="fill:rgb(45,123,253);fill-rule:nonzero;"/>
    </g>
    <g transform="matrix(1,0,0,1,5.68434e-14,0.447)">
        <path d="M384.397,684.909L384.361,684.909L384.361,689.409L382.471,689.409L382.471,675.909L384.361,675.909L384.361,684.189L384.397,684.189L388.321,680.049L390.571,680.049L386.251,684.549L390.571,689.409L388.321,689.409L384.397,684.909Z" style="fill:rgb(45,123,253);fill-rule:nonzero;"/>
    </g>
    <g transform="matrix(1,0,0,1,5.68434e-14,0.447)">
        <rect x="393.252" y="675.909" width="1.98" height="13.5" style="fill:rgb(45,123,253);fill-rule:nonzero;"/>
    </g>
    <g transform="matrix(1,0,0,1,5.68434e-14,0.447)">
        <path d="M150.469,712.254L195.469,712.254L208.969,725.754L208.969,797.754L150.469,797.754L150.469,712.254Z" style="fill:white;fill-rule:nonzero;"/>
    </g>
    <g transform="matrix(1,0,0,1,5.68434e-14,0.447)">
        <path d="M208.969,725.754L208.969,793.254C208.969,795.729 206.944,797.754 204.469,797.754L154.969,797.754C152.494,797.754 150.469,795.729 150.469,793.254L150.469,716.754C150.469,714.278 152.494,712.254 154.969,712.253L195.469,712.252" style="fill:none;fill-rule:nonzero;stroke:rgb(132,14,255);stroke-width:4.5px;stroke-linecap:round;"/>
    </g>
    <g transform="matrix(1,0,0,1,5.68434e-14,0.447)">
        <path d="M161.719,743.754L197.719,743.754" style="fill:none;fill-rule:nonzero;stroke:rgb(132,14,255);stroke-width:4.5px;stroke-linecap:round;"/>
    </g>
    <g transform="matrix(1,0,0,1,5.68434e-14,0.447)">
        <rect x="161.719" y="734.754" width="36" height="54" style="fill:none;fill-rule:nonzero;stroke:rgb(132,14,255);stroke-width:4.5px;stroke-linecap:square;"/>
    </g>
    <g transform="matrix(1,0,0,1,5.68434e-14,0.447)">
        <path d="M161.719,752.754L197.719,752.754" style="fill:none;fill-rule:nonzero;stroke:rgb(132,14,255);stroke-width:4.5px;stroke-linecap:round;"/>
    </g>
    <g transform="matrix(1,0,0,1,5.68434e-14,0.447)">
        <path d="M161.719,761.754L197.719,761.754" style="fill:none;fill-rule:nonzero;stroke:rgb(132,14,255);stroke-width:4.5px;stroke-linecap:round;"/>
    </g>
    <g transform="matrix(1,0,0,1,5.68434e-14,0.447)">
        <path d="M161.719,770.754L197.719,770.754" style="fill:none;fill-rule:nonzero;stroke:rgb(132,14,255);stroke-width:4.5px;stroke-linecap:round;"/>
    </g>
    <g transform="matrix(1,0,0,1,5.68434e-14,0.447)">
        <path d="M161.719,779.754L197.719,779.754" style="fill:none;fill-rule:nonzero;stroke:rgb(132,14,255);stroke-width:4.5px;stroke-linecap:round;"/>
    </g>
    <g transform="matrix(1,0,0,1,5.68434e-14,0.447)">
        <path d="M170.719,788.754L170.719,734.758" style="fill:none;fill-rule:nonzero;stroke:rgb(132,14,255);stroke-width:4.5px;stroke-linecap:round;"/>
    </g>
    <g transform="matrix(1,0,0,1,5.68434e-14,0.447)">
        <path d="M179.719,788.754L179.719,734.758" style="fill:none;fill-rule:nonzero;stroke:rgb(132,14,255);stroke-width:4.5px;stroke-linecap:round;"/>
    </g>
    <g transform="matrix(1,0,0,1,5.68434e-14,0.447)">
        <path d="M188.719,788.754L188.719,734.758" style="fill:none;fill-rule:nonzero;stroke:rgb(132,14,255);stroke-width:4.5px;stroke-linecap:round;"/>
    </g>
    <g transform="matrix(1,0,0,1,5.68434e-14,0.447)">
        <path d="M208.969,725.754L199.969,725.754C197.494,725.754 195.469,723.729 195.469,721.254L195.469,712.252" style="fill:none;fill-rule:nonzero;stroke:rgb(132,14,255);stroke-width:4.5px;stroke-linecap:round;"/>
    </g>
    <g transform="matrix(1,0,0,1,5.68434e-14,0.447)">
        <path d="M195.469,712.252L208.969,725.754" style="fill:none;fill-rule:nonzero;stroke:rgb(132,14,255);stroke-width:4.5px;stroke-linecap:round;"/>
    </g>
    <g transform="matrix(1,0,0,1,5.68434e-14,0.447)">
        <rect x="106.219" y="813.998" width="147" height="20.984" style="fill:none;fill-rule:nonzero;"/>
    </g>
    <g transform="matrix(1,0,0,1,5.68434e-14,0.447)">
        <path d="M148.719,821.015L148.719,827.495L146.991,827.495L146.991,822.095C146.991,821.003 146.895,820.281 146.706,819.926C146.516,819.572 146.163,819.395 145.649,819.395C145.324,819.395 144.992,819.575 144.65,819.935C144.309,820.295 144.139,820.655 144.139,821.015L144.139,827.495L142.377,827.495L142.377,818.135L144.055,818.135L144.088,819.215L144.121,819.215C144.769,818.375 145.503,817.955 146.319,817.955C146.81,817.955 147.208,818.063 147.509,818.279C147.812,818.495 148.079,818.867 148.315,819.395L148.348,819.395C149.008,818.435 149.802,817.955 150.73,817.955C151.647,817.955 152.301,818.222 152.693,818.756C153.085,819.29 153.281,820.223 153.281,821.555L153.281,827.495L151.552,827.495L151.552,822.095C151.552,821.003 151.457,820.281 151.267,819.926C151.077,819.572 150.725,819.395 150.21,819.395C149.886,819.395 149.556,819.575 149.22,819.935C148.887,820.295 148.719,820.656 148.719,821.015Z" style="fill:rgb(132,14,255);fill-rule:nonzero;"/>
    </g>
    <g transform="matrix(1,0,0,1,5.68434e-14,0.447)">
        <path d="M156.116,819.224C156.843,818.378 157.849,817.955 159.136,817.955C160.423,817.955 161.429,818.378 162.156,819.224C162.884,820.07 163.247,821.267 163.247,822.815C163.247,824.363 162.884,825.56 162.156,826.406C161.429,827.252 160.423,827.675 159.136,827.675C157.849,827.675 156.843,827.252 156.116,826.406C155.389,825.56 155.026,824.363 155.026,822.815C155.027,821.267 155.39,820.07 156.116,819.224ZM156.822,822.815C156.822,825.095 157.593,826.235 159.136,826.235C160.68,826.235 161.451,825.095 161.451,822.815C161.451,820.535 160.68,819.395 159.136,819.395C157.593,819.395 156.822,820.535 156.822,822.815Z" style="fill:rgb(132,14,255);fill-rule:nonzero;"/>
    </g>
    <g transform="matrix(1,0,0,1,5.68434e-14,0.447)">
        <path d="M164.739,822.815C164.739,821.279 165.061,820.085 165.704,819.233C166.348,818.381 167.2,817.955 168.263,817.955C169.246,817.955 170.103,818.345 170.829,819.125L170.862,819.125L170.862,813.995L172.624,813.995L172.624,827.495L170.98,827.495L170.946,826.325L170.913,826.325C170.488,826.829 170.077,827.18 169.68,827.378C169.284,827.576 168.811,827.675 168.263,827.675C167.245,827.675 166.404,827.237 165.739,826.361C165.072,825.486 164.739,824.303 164.739,822.815ZM170.862,824.165L170.862,821.465C170.862,820.925 170.647,820.445 170.216,820.025C169.785,819.605 169.274,819.395 168.681,819.395C167.227,819.395 166.5,820.535 166.5,822.815C166.5,823.967 166.693,824.825 167.079,825.389C167.465,825.953 167.999,826.235 168.681,826.235C169.274,826.235 169.785,826.026 170.216,825.605C170.647,825.185 170.862,824.705 170.862,824.165Z" style="fill:rgb(132,14,255);fill-rule:nonzero;"/>
    </g>
    <g transform="matrix(1,0,0,1,5.68434e-14,0.447)">
        <path d="M176.314,823.355C176.416,825.299 177.332,826.271 179.066,826.271C179.815,826.271 180.626,826.079 181.498,825.695L181.498,827.279C180.57,827.543 179.703,827.675 178.898,827.675C177.5,827.675 176.423,827.267 175.669,826.451C174.915,825.635 174.537,824.423 174.537,822.815C174.537,821.207 174.875,819.995 175.552,819.179C176.229,818.364 177.204,817.955 178.479,817.955C179.687,817.955 180.59,818.342 181.189,819.116C181.787,819.89 182.086,821.093 182.086,822.725C182.086,822.893 182.069,823.103 182.035,823.355L176.314,823.355ZM176.314,821.951L180.357,821.951C180.324,820.223 179.698,819.359 178.478,819.359C177.819,819.359 177.31,819.564 176.952,819.971C176.594,820.379 176.381,821.039 176.314,821.951Z" style="fill:rgb(132,14,255);fill-rule:nonzero;"/>
    </g>
    <g transform="matrix(1,0,0,1,5.68434e-14,0.447)">
        <rect x="184.584" y="813.995" width="1.846" height="13.5" style="fill:rgb(132,14,255);fill-rule:nonzero;"/>
    </g>
    <g transform="matrix(1,0,0,1,5.68434e-14,0.447)">
        <rect x="189.768" y="824.795" width="2.182" height="2.7" style="fill:rgb(132,14,255);fill-rule:nonzero;"/>
    </g>
    <g transform="matrix(1,0,0,1,5.68434e-14,0.447)">
        <path d="M202.585,822.815C202.585,824.303 202.252,825.485 201.586,826.361C200.921,827.237 200.079,827.675 199.062,827.675C198.078,827.675 197.222,827.285 196.496,826.505L196.463,826.505L196.463,831.455L194.701,831.455L194.701,818.135L196.345,818.135L196.379,819.305L196.412,819.305C196.837,818.801 197.248,818.45 197.645,818.252C198.041,818.054 198.514,817.955 199.062,817.955C200.124,817.955 200.977,818.381 201.621,819.233C202.263,820.085 202.585,821.28 202.585,822.815ZM196.462,824.165C196.462,824.717 196.677,825.2 197.108,825.614C197.539,826.028 198.05,826.235 198.643,826.235C199.314,826.235 199.845,825.947 200.237,825.371C200.628,824.795 200.824,823.943 200.824,822.815C200.824,820.535 200.096,819.395 198.643,819.395C198.05,819.395 197.539,819.602 197.108,820.016C196.677,820.43 196.462,820.913 196.462,821.465L196.462,824.165Z" style="fill:rgb(132,14,255);fill-rule:nonzero;"/>
    </g>
    <g transform="matrix(1,0,0,1,5.68434e-14,0.447)">
        <path d="M206.376,822.995L206.342,822.995L206.342,827.495L204.581,827.495L204.581,813.995L206.342,813.995L206.342,822.275L206.376,822.275L210.033,818.135L212.13,818.135L208.104,822.635L212.13,827.495L210.033,827.495L206.376,822.995Z" style="fill:rgb(132,14,255);fill-rule:nonzero;"/>
    </g>
    <g transform="matrix(1,0,0,1,5.68434e-14,0.447)">
        <rect x="214.629" y="813.995" width="1.846" height="13.5" style="fill:rgb(132,14,255);fill-rule:nonzero;"/>
    </g>
    <g transform="matrix(1,0,0,1,5.68434e-14,0.447)">
        <rect x="399.219" y="673.998" width="147" height="21.005" style="fill:none;fill-rule:nonzero;"/>
    </g>
    <g transform="matrix(1,0,0,1,5.68434e-14,0.447)">
        <path d="M425.564,681.015L425.564,687.495L423.836,687.495L423.836,682.095C423.836,681.003 423.74,680.281 423.551,679.926C423.361,679.572 423.008,679.395 422.494,679.395C422.169,679.395 421.837,679.575 421.495,679.935C421.154,680.295 420.984,680.655 420.984,681.015L420.984,687.495L419.222,687.495L419.222,678.135L420.9,678.135L420.933,679.215L420.966,679.215C421.614,678.375 422.348,677.955 423.164,677.955C423.655,677.955 424.053,678.063 424.354,678.279C424.657,678.495 424.924,678.867 425.16,679.395L425.193,679.395C425.853,678.435 426.647,677.955 427.575,677.955C428.492,677.955 429.146,678.222 429.538,678.756C429.93,679.29 430.126,680.223 430.126,681.555L430.126,687.495L428.397,687.495L428.397,682.095C428.397,681.003 428.302,680.281 428.112,679.926C427.922,679.572 427.57,679.395 427.055,679.395C426.731,679.395 426.401,679.575 426.065,679.935C425.732,680.295 425.564,680.656 425.564,681.015Z" style="fill:rgb(200,0,3);fill-rule:nonzero;"/>
    </g>
    <g transform="matrix(1,0,0,1,5.68434e-14,0.447)">
        <path d="M432.961,679.224C433.688,678.378 434.694,677.955 435.981,677.955C437.268,677.955 438.274,678.378 439.001,679.224C439.729,680.07 440.092,681.267 440.092,682.815C440.092,684.363 439.729,685.56 439.001,686.406C438.274,687.252 437.268,687.675 435.981,687.675C434.694,687.675 433.688,687.252 432.961,686.406C432.234,685.56 431.871,684.363 431.871,682.815C431.871,681.267 432.235,680.07 432.961,679.224ZM433.666,682.815C433.666,685.095 434.437,686.235 435.98,686.235C437.524,686.235 438.295,685.095 438.295,682.815C438.295,680.535 437.524,679.395 435.98,679.395C434.438,679.395 433.666,680.535 433.666,682.815Z" style="fill:rgb(200,0,3);fill-rule:nonzero;"/>
    </g>
    <g transform="matrix(1,0,0,1,5.68434e-14,0.447)">
        <path d="M441.583,682.815C441.583,681.279 441.905,680.085 442.548,679.233C443.192,678.381 444.044,677.955 445.107,677.955C446.09,677.955 446.947,678.345 447.673,679.125L447.706,679.125L447.706,673.995L449.468,673.995L449.468,687.495L447.824,687.495L447.79,686.325L447.757,686.325C447.332,686.829 446.921,687.18 446.524,687.378C446.128,687.576 445.655,687.675 445.107,687.675C444.089,687.675 443.248,687.237 442.583,686.361C441.916,685.486 441.583,684.303 441.583,682.815ZM447.706,684.165L447.706,681.465C447.706,680.925 447.491,680.445 447.06,680.025C446.629,679.605 446.118,679.395 445.525,679.395C444.071,679.395 443.344,680.535 443.344,682.815C443.344,683.967 443.537,684.825 443.923,685.389C444.309,685.953 444.843,686.235 445.525,686.235C446.118,686.235 446.629,686.026 447.06,685.605C447.491,685.185 447.706,684.705 447.706,684.165Z" style="fill:rgb(200,0,3);fill-rule:nonzero;"/>
    </g>
    <g transform="matrix(1,0,0,1,5.68434e-14,0.447)">
        <path d="M453.158,683.355C453.26,685.299 454.176,686.271 455.91,686.271C456.659,686.271 457.47,686.079 458.342,685.695L458.342,687.279C457.414,687.543 456.547,687.675 455.742,687.675C454.344,687.675 453.267,687.267 452.513,686.451C451.759,685.635 451.381,684.423 451.381,682.815C451.381,681.207 451.719,679.995 452.396,679.179C453.073,678.364 454.048,677.955 455.323,677.955C456.531,677.955 457.434,678.342 458.033,679.116C458.631,679.89 458.93,681.093 458.93,682.725C458.93,682.893 458.913,683.103 458.879,683.355L453.158,683.355ZM453.158,681.951L457.201,681.951C457.168,680.223 456.542,679.359 455.322,679.359C454.663,679.359 454.154,679.564 453.796,679.971C453.439,680.379 453.226,681.039 453.158,681.951Z" style="fill:rgb(200,0,3);fill-rule:nonzero;"/>
    </g>
    <g transform="matrix(1,0,0,1,5.68434e-14,0.447)">
        <rect x="461.429" y="673.995" width="1.846" height="13.5" style="fill:rgb(200,0,3);fill-rule:nonzero;"/>
    </g>
    <g transform="matrix(1,0,0,1,5.68434e-14,0.447)">
        <rect x="466.613" y="684.795" width="2.182" height="2.7" style="fill:rgb(200,0,3);fill-rule:nonzero;"/>
    </g>
    <g transform="matrix(1,0,0,1,5.68434e-14,0.447)">
        <path d="M479.43,682.815C479.43,684.303 479.097,685.485 478.431,686.361C477.766,687.237 476.924,687.675 475.907,687.675C474.923,687.675 474.067,687.285 473.341,686.505L473.308,686.505L473.308,691.455L471.546,691.455L471.546,678.135L473.19,678.135L473.224,679.305L473.257,679.305C473.682,678.801 474.093,678.45 474.49,678.252C474.886,678.054 475.359,677.955 475.907,677.955C476.969,677.955 477.822,678.381 478.466,679.233C479.108,680.085 479.43,681.28 479.43,682.815ZM473.307,684.165C473.307,684.717 473.522,685.2 473.953,685.614C474.384,686.028 474.895,686.235 475.488,686.235C476.159,686.235 476.69,685.947 477.082,685.371C477.473,684.795 477.669,683.943 477.669,682.815C477.669,680.535 476.941,679.395 475.488,679.395C474.895,679.395 474.384,679.602 473.953,680.016C473.522,680.43 473.307,680.913 473.307,681.465L473.307,684.165Z" style="fill:rgb(200,0,3);fill-rule:nonzero;"/>
    </g>
    <g transform="matrix(1,0,0,1,5.68434e-14,0.447)">
        <path d="M483.221,682.995L483.187,682.995L483.187,687.495L481.426,687.495L481.426,673.995L483.187,673.995L483.187,682.275L483.221,682.275L486.878,678.135L488.975,678.135L484.949,682.635L488.975,687.495L486.878,687.495L483.221,682.995Z" style="fill:rgb(200,0,3);fill-rule:nonzero;"/>
    </g>
    <g transform="matrix(1,0,0,1,5.68434e-14,0.447)">
        <rect x="491.474" y="673.995" width="1.846" height="13.5" style="fill:rgb(200,0,3);fill-rule:nonzero;"/>
    </g>
    <g transform="matrix(1,0,0,1,5.68434e-14,0.447)">
        <rect x="496.657" y="684.795" width="2.182" height="2.7" style="fill:rgb(200,0,3);fill-rule:nonzero;"/>
    </g>
    <g transform="matrix(1,0,0,1,5.68434e-14,0.447)">
        <path d="M500.918,682.815C500.918,681.279 501.24,680.085 501.883,679.233C502.527,678.381 503.379,677.955 504.442,677.955C505.425,677.955 506.282,678.345 507.008,679.125L507.041,679.125L507.041,673.995L508.803,673.995L508.803,687.495L507.159,687.495L507.125,686.325L507.092,686.325C506.667,686.829 506.256,687.18 505.859,687.378C505.463,687.576 504.99,687.675 504.442,687.675C503.424,687.675 502.583,687.237 501.918,686.361C501.251,685.486 500.918,684.303 500.918,682.815ZM507.041,684.165L507.041,681.465C507.041,680.925 506.826,680.445 506.395,680.025C505.964,679.605 505.453,679.395 504.86,679.395C503.406,679.395 502.679,680.535 502.679,682.815C502.679,683.967 502.872,684.825 503.258,685.389C503.644,685.953 504.178,686.235 504.86,686.235C505.453,686.235 505.964,686.026 506.395,685.605C506.826,685.185 507.041,684.705 507.041,684.165Z" style="fill:rgb(200,0,3);fill-rule:nonzero;"/>
    </g>
    <g transform="matrix(1,0,0,1,5.68434e-14,0.447)">
        <path d="M512.544,678.135L514.759,686.415L514.792,686.415L517.006,678.135L518.852,678.135L515.916,687.495L513.567,687.495L510.631,678.135L512.544,678.135Z" style="fill:rgb(200,0,3);fill-rule:nonzero;"/>
    </g>
    <g transform="matrix(1,0,0,1,5.68434e-14,0.447)">
        <path d="M519.757,682.815C519.757,681.243 520.109,680.04 520.814,679.206C521.518,678.372 522.508,677.955 523.783,677.955C524.566,677.955 525.377,678.045 526.216,678.225L526.216,679.845C525.433,679.57 524.667,679.431 523.918,679.431C523.147,679.431 522.567,679.701 522.182,680.241C521.797,680.781 521.603,681.639 521.603,682.815C521.603,684.015 521.807,684.879 522.215,685.407C522.623,685.935 523.247,686.199 524.086,686.199C524.813,686.199 525.551,686.031 526.3,685.695L526.3,687.315C525.517,687.555 524.735,687.675 523.951,687.675C522.609,687.675 521.574,687.264 520.847,686.442C520.12,685.62 519.757,684.411 519.757,682.815Z" style="fill:rgb(200,0,3);fill-rule:nonzero;"/>
    </g>
    <g transform="matrix(1,0,0,1,5.68434e-14,0.447)">
        <path d="M445.717,574.253L490.717,574.253L504.217,587.753L504.217,659.753L445.717,659.753L445.717,574.253Z" style="fill:white;fill-rule:nonzero;"/>
    </g>
    <g transform="matrix(1,0,0,1,5.68434e-14,0.447)">
        <path d="M504.217,587.753L504.217,655.253C504.217,657.729 502.192,659.753 499.717,659.753L450.217,659.753C447.742,659.753 445.717,657.729 445.717,655.253L445.717,578.753C445.717,576.278 447.742,574.253 450.217,574.253L490.717,574.251" style="fill:none;fill-rule:nonzero;stroke:rgb(200,0,3);stroke-width:4.5px;stroke-linecap:round;"/>
    </g>
    <g transform="matrix(1,0,0,1,5.68434e-14,0.447)">
        <path d="M504.217,587.753L495.217,587.753C492.742,587.753 490.717,585.728 490.717,583.253L490.717,574.251" style="fill:none;fill-rule:nonzero;stroke:rgb(200,0,3);stroke-width:4.5px;stroke-linecap:round;"/>
    </g>
    <g transform="matrix(1,0,0,1,5.68434e-14,0.447)">
        <path d="M490.717,574.251L504.217,587.753" style="fill:none;fill-rule:nonzero;stroke:rgb(200,0,3);stroke-width:4.5px;stroke-linecap:round;"/>
    </g>
    <g transform="matrix(1,0,0,1,5.68434e-14,0.447)">
        <path d="M486.217,596.753C486.217,599.229 484.192,601.253 481.717,601.253L445.717,601.253C443.242,601.253 441.217,599.229 441.217,596.753L441.217,592.253C441.217,589.778 443.242,587.753 445.717,587.753L481.717,587.753C484.192,587.753 486.217,589.778 486.217,592.253L486.217,596.753Z" style="fill:rgb(200,0,3);fill-rule:nonzero;"/>
    </g>
    <g transform="matrix(1,0,0,1,5.68434e-14,0.447)">
        <path d="M486.217,596.753C486.217,599.229 484.192,601.253 481.717,601.253L445.717,601.253C443.242,601.253 441.217,599.229 441.217,596.753L441.217,592.253C441.217,589.778 443.242,587.753 445.717,587.753L481.717,587.753C484.192,587.753 486.217,589.778 486.217,592.253L486.217,596.753Z" style="fill:none;fill-rule:nonzero;stroke:rgb(200,0,3);stroke-width:4.5px;stroke-linecap:round;"/>
    </g>
    <g transform="matrix(1,0,0,1,5.68434e-14,0.447)">
        <rect x="442.792" y="588.655" width="42.75" height="14.849" style="fill:none;fill-rule:nonzero;"/>
    </g>
    <g transform="matrix(1,0,0,1,5.68434e-14,0.447)">
        <path d="M446.182,588.965L448.26,593.895L448.291,593.895L450.371,588.965L453.363,588.965L449.613,596.052L449.613,600.462L446.857,600.462L446.857,596.052L443.125,588.965L446.182,588.965Z" style="fill:white;fill-rule:nonzero;"/>
    </g>
    <g transform="matrix(1,0,0,1,5.68434e-14,0.447)">
        <path d="M451.584,600.463L455.316,588.965L458.15,588.965L461.882,600.463L459.032,600.463L458.401,597.974L454.999,597.974L454.37,600.463L451.584,600.463ZM455.506,595.943L457.899,595.943L456.717,591.281L456.686,591.281L455.506,595.943Z" style="fill:white;fill-rule:nonzero;"/>
    </g>
    <g transform="matrix(1,0,0,1,5.68434e-14,0.447)">
        <path d="M471.696,592.383L471.665,592.383L470.138,600.463L467.398,600.463L465.869,592.383L465.838,592.383L465.287,600.463L462.705,600.463L463.996,588.965L467.193,588.965L468.783,597.738L468.814,597.738L470.406,588.965L473.603,588.965L474.894,600.463L472.248,600.463L471.696,592.383Z" style="fill:white;fill-rule:nonzero;"/>
    </g>
    <g transform="matrix(1,0,0,1,5.68434e-14,0.447)">
        <path d="M479.018,588.965L479.018,598.242L483.885,598.242L483.885,600.463L476.262,600.463L476.262,588.965L479.018,588.965Z" style="fill:white;fill-rule:nonzero;"/>
    </g>
    <g transform="matrix(1,0,0,1,5.68434e-14,0.447)">
        <rect x="-0" y="-0.001" width="1723.22" height="839.791" style="fill:none;fill-rule:nonzero;"/>
    </g>
    <g transform="matrix(1,0,0,1,5.68434e-14,0.447)">
        <rect x="11.856" y="704.263" width="76.775" height="130.738" style="fill:none;fill-rule:nonzero;"/>
    </g>
    <g transform="matrix(1,0,0,1,5.68434e-14,0.447)">
        <rect x="11.858" y="816.977" width="15.863" height="2.308" style="fill:rgb(4,8,15);fill-rule:nonzero;"/>
    </g>
    <g transform="matrix(1,0,0,1,5.68434e-14,0.447)">
        <path d="M18.002,812.595C17.008,811.686 16.51,810.428 16.51,808.819C16.51,807.212 17.008,805.953 18.002,805.044C18.996,804.135 20.402,803.681 22.221,803.681C24.041,803.681 25.448,804.136 26.442,805.044C27.436,805.953 27.932,807.212 27.932,808.819C27.932,810.427 27.436,811.686 26.442,812.595C25.448,813.504 24.042,813.958 22.221,813.958C20.403,813.958 18.996,813.504 18.002,812.595ZM22.221,811.714C24.901,811.714 26.241,810.749 26.241,808.819C26.241,806.889 24.901,805.924 22.221,805.924C19.543,805.924 18.203,806.889 18.203,808.819C18.203,810.749 19.543,811.714 22.221,811.714Z" style="fill:rgb(4,8,15);fill-rule:nonzero;"/>
    </g>
    <g transform="matrix(1,0,0,1,5.68434e-14,0.447)">
        <path d="M22.221,801.918C20.375,801.918 18.961,801.478 17.981,800.597C17.001,799.716 16.51,798.478 16.51,796.884C16.51,795.905 16.617,794.892 16.828,793.843L18.732,793.843C18.408,794.822 18.244,795.78 18.244,796.717C18.244,797.682 18.562,798.405 19.197,798.888C19.832,799.371 20.84,799.612 22.22,799.612C23.63,799.612 24.646,799.357 25.267,798.846C25.886,798.336 26.197,797.556 26.197,796.507C26.197,795.598 26,794.675 25.605,793.738L27.507,793.738C27.79,794.717 27.931,795.696 27.931,796.675C27.931,798.353 27.449,799.647 26.482,800.555C25.518,801.464 24.096,801.918 22.221,801.918Z" style="fill:rgb(4,8,15);fill-rule:nonzero;"/>
    </g>
    <g transform="matrix(1,0,0,1,5.68434e-14,0.447)">
        <path d="M16.51,786.942C16.51,785.18 16.828,783.971 17.463,783.314C18.098,782.657 19.26,782.328 20.953,782.328L27.721,782.328L27.721,784.384L26.135,784.426L26.135,784.468C27.332,785.28 27.932,786.489 27.932,788.097C27.932,789.048 27.621,789.827 27.002,790.436C26.381,791.044 25.563,791.348 24.547,791.348C23.307,791.348 22.346,790.88 21.66,789.943C20.976,789.006 20.635,787.587 20.635,785.685L20.635,784.531L20.213,784.531C19.465,784.531 18.943,784.706 18.647,785.055C18.352,785.405 18.204,786.034 18.204,786.943C18.204,788.034 18.472,789.293 19.007,790.719L17.146,790.719C16.723,789.417 16.51,788.159 16.51,786.942ZM22.18,784.53L22.18,785.684C22.18,786.83 22.373,787.694 22.76,788.274C23.149,788.855 23.674,789.145 24.336,789.145C24.857,789.145 25.287,788.991 25.627,788.684C25.965,788.376 26.135,788.006 26.135,787.572C26.135,786.649 25.842,785.912 25.256,785.359C24.672,784.807 23.871,784.53 22.856,784.53L22.18,784.53Z" style="fill:rgb(4,8,15);fill-rule:nonzero;"/>
    </g>
    <g transform="matrix(1,0,0,1,5.68434e-14,0.447)">
        <rect x="11.858" y="776.371" width="15.863" height="2.307" style="fill:rgb(4,8,15);fill-rule:nonzero;"/>
    </g>
    <g transform="matrix(1,0,0,1,5.68434e-14,0.447)">
        <path d="M44.217,818.258L53.313,816.433L53.313,816.391L44.217,814.629L44.217,811.692L53.313,809.93L53.313,809.888L44.217,808.063L44.217,805.755L55.215,808.587L55.215,811.419L46.332,813.181L46.332,813.223L55.215,814.985L55.215,817.817L44.217,820.649L44.217,818.258Z" style="fill:rgb(4,8,15);fill-rule:nonzero;"/>
    </g>
    <g transform="matrix(1,0,0,1,5.68434e-14,0.447)">
        <path d="M45.496,802.946C44.502,802.037 44.006,800.779 44.006,799.171C44.006,797.563 44.502,796.305 45.496,795.396C46.49,794.487 47.896,794.033 49.717,794.033C51.535,794.033 52.942,794.487 53.936,795.396C54.93,796.305 55.428,797.563 55.428,799.171C55.428,800.779 54.93,802.038 53.936,802.946C52.942,803.855 51.536,804.309 49.717,804.309C47.897,804.309 46.49,803.855 45.496,802.946ZM49.717,802.065C52.395,802.065 53.735,801.1 53.735,799.17C53.735,797.24 52.395,796.275 49.717,796.275C47.037,796.275 45.697,797.24 45.697,799.17C45.697,801.1 47.037,802.065 49.717,802.065Z" style="fill:rgb(4,8,15);fill-rule:nonzero;"/>
    </g>
    <g transform="matrix(1,0,0,1,5.68434e-14,0.447)">
        <path d="M46.016,784.614L46.016,785.033C46.016,786.543 46.336,787.655 46.977,788.368C47.62,789.081 48.604,789.438 49.928,789.438L55.215,789.438L55.215,791.745L44.217,791.745L44.217,789.543L46.332,789.543L46.332,789.501C45.684,789.054 45.17,788.431 44.789,787.634C44.408,786.837 44.217,785.97 44.217,785.033L44.217,784.614L46.016,784.614Z" style="fill:rgb(4,8,15);fill-rule:nonzero;"/>
    </g>
    <g transform="matrix(1,0,0,1,5.68434e-14,0.447)">
        <path d="M49.928,779.664L49.928,779.706L55.215,779.706L55.215,781.908L39.354,781.908L39.354,779.706L49.083,779.706L49.083,779.664L44.218,775.091L44.218,772.469L49.505,777.503L55.216,772.469L55.216,775.091L49.928,779.664Z" style="fill:rgb(4,8,15);fill-rule:nonzero;"/>
    </g>
    <g transform="matrix(1,0,0,1,5.68434e-14,0.447)">
        <path d="M41.68,769.344L39.354,769.344L39.354,767.037L41.68,767.037L41.68,769.344ZM55.215,769.344L44.217,769.344L44.217,767.037L55.215,767.037L55.215,769.344Z" style="fill:rgb(4,8,15);fill-rule:nonzero;"/>
    </g>
    <g transform="matrix(1,0,0,1,5.68434e-14,0.447)">
        <path d="M45.592,761.143C44.535,760.136 44.006,758.997 44.006,757.724C44.006,756.451 44.369,755.521 45.096,754.934C45.823,754.347 47.01,754.053 48.658,754.053L55.215,754.053L55.215,756.214L48.977,756.214C47.707,756.214 46.844,756.368 46.385,756.675C45.928,756.983 45.697,757.542 45.697,758.353C45.697,759.011 45.99,759.629 46.576,760.209C47.16,760.79 47.785,761.08 48.447,761.08L55.215,761.08L55.215,763.282L44.217,763.282L44.217,761.227L45.592,761.185L45.592,761.143Z" style="fill:rgb(4,8,15);fill-rule:nonzero;"/>
    </g>
    <g transform="matrix(1,0,0,1,5.68434e-14,0.447)">
        <path d="M58.389,747.887C58.389,746.783 58.209,745.929 57.848,745.328C57.489,744.727 57.02,744.426 56.442,744.426C55.272,744.426 54.688,745.496 54.688,747.635C54.688,749.173 54.506,750.264 54.147,750.907C53.788,751.551 53.243,751.872 52.508,751.872C51.959,751.872 51.338,751.564 50.647,750.949C49.958,751.704 49.069,752.082 47.983,752.082C46.813,752.082 45.858,751.697 45.118,750.928C44.376,750.159 44.007,749.18 44.007,747.991C44.007,746.551 44.458,745.383 45.361,744.488L45.361,744.446L44.218,744.425L44.218,742.432L48.025,742.432C49.254,742.432 50.193,742.834 50.849,743.638C51.505,744.442 51.833,745.648 51.833,747.256C51.833,748.109 51.712,748.871 51.474,749.543C51.798,749.836 52.058,749.983 52.255,749.983C52.538,749.983 52.741,749.801 52.868,749.438C52.995,749.075 53.059,748.361 53.059,747.298C53.059,745.536 53.317,744.25 53.83,743.439C54.346,742.628 55.123,742.223 56.168,742.223C57.408,742.223 58.369,742.699 59.055,743.649C59.739,744.6 60.08,746.012 60.08,747.886C60.08,749.383 59.797,750.781 59.234,752.081L57.33,752.081C58.035,750.796 58.389,749.397 58.389,747.887ZM48.045,749.943C48.793,749.943 49.379,749.712 49.801,749.251C50.225,748.79 50.436,748.147 50.436,747.321C50.436,746.538 50.221,745.912 49.791,745.444C49.361,744.975 48.779,744.741 48.045,744.741C47.283,744.741 46.682,744.989 46.236,745.486C45.793,745.982 45.57,746.629 45.57,747.426C45.57,748.181 45.8,748.789 46.258,749.251C46.717,749.712 47.313,749.943 48.045,749.943Z" style="fill:rgb(4,8,15);fill-rule:nonzero;"/>
    </g>
    <g transform="matrix(1,0,0,1,5.68434e-14,0.447)">
        <path d="M71.5,816.139C71.5,814.377 71.818,813.168 72.453,812.51C73.088,811.853 74.25,811.525 75.943,811.525L82.711,811.525L82.711,813.58L81.125,813.622L81.125,813.664C82.322,814.475 82.922,815.685 82.922,817.293C82.922,818.244 82.611,819.023 81.992,819.631C81.371,820.239 80.553,820.544 79.537,820.544C78.297,820.544 77.336,820.076 76.65,819.139C75.966,818.202 75.625,816.783 75.625,814.881L75.625,813.727L75.203,813.727C74.455,813.727 73.933,813.902 73.637,814.251C73.342,814.601 73.194,815.23 73.194,816.139C73.194,817.23 73.462,818.488 73.997,819.914L72.136,819.914C71.713,818.614 71.5,817.356 71.5,816.139ZM77.17,813.727L77.17,814.881C77.17,816.027 77.363,816.891 77.75,817.471C78.139,818.051 78.664,818.341 79.326,818.341C79.847,818.341 80.277,818.188 80.617,817.88C80.955,817.573 81.125,817.202 81.125,816.769C81.125,815.846 80.832,815.108 80.246,814.556C79.662,814.004 78.861,813.727 77.846,813.727L77.17,813.727Z" style="fill:rgb(4,8,15);fill-rule:nonzero;"/>
    </g>
    <g transform="matrix(1,0,0,1,5.68434e-14,0.447)">
        <path d="M73.51,801.477L73.51,801.897C73.51,803.407 73.832,804.519 74.473,805.232C75.116,805.945 76.098,806.302 77.424,806.302L82.711,806.302L82.711,808.609L71.713,808.609L71.713,806.406L73.828,806.406L73.828,806.364C73.18,805.917 72.664,805.295 72.283,804.497C71.902,803.7 71.713,802.833 71.713,801.896L71.713,801.477L73.51,801.477Z" style="fill:rgb(4,8,15);fill-rule:nonzero;"/>
    </g>
    <g transform="matrix(1,0,0,1,5.68434e-14,0.447)">
        <path d="M77.846,797.807C80.131,797.681 81.272,796.535 81.272,794.367C81.272,793.43 81.047,792.416 80.596,791.325L82.457,791.325C82.768,792.486 82.922,793.57 82.922,794.576C82.922,796.324 82.443,797.67 81.484,798.614C80.525,799.558 79.101,800.03 77.211,800.03C75.322,800.03 73.899,799.608 72.94,798.761C71.981,797.915 71.501,796.695 71.501,795.101C71.501,793.591 71.956,792.461 72.866,791.713C73.776,790.965 75.188,790.591 77.106,790.591C77.303,790.591 77.551,790.612 77.846,790.654L77.846,797.807ZM76.196,797.807L76.196,792.752C74.167,792.794 73.151,793.577 73.151,795.102C73.151,795.927 73.391,796.563 73.87,797.011C74.35,797.457 75.125,797.723 76.196,797.807Z" style="fill:rgb(4,8,15);fill-rule:nonzero;"/>
    </g>
    <g transform="matrix(1,0,0,1,5.68434e-14,0.447)">
        <path d="M71.5,784.32C71.5,782.558 71.818,781.349 72.453,780.692C73.088,780.035 74.25,779.706 75.943,779.706L82.711,779.706L82.711,781.761L81.125,781.803L81.125,781.845C82.322,782.656 82.922,783.866 82.922,785.474C82.922,786.425 82.611,787.204 81.992,787.812C81.371,788.42 80.553,788.725 79.537,788.725C78.297,788.725 77.336,788.257 76.65,787.32C75.966,786.383 75.625,784.964 75.625,783.062L75.625,781.908L75.203,781.908C74.455,781.908 73.933,782.083 73.637,782.432C73.342,782.782 73.194,783.411 73.194,784.32C73.194,785.411 73.462,786.669 73.997,788.095L72.136,788.095C71.713,786.795 71.5,785.537 71.5,784.32ZM77.17,781.908L77.17,783.062C77.17,784.208 77.363,785.072 77.75,785.652C78.139,786.233 78.664,786.523 79.326,786.523C79.847,786.523 80.277,786.369 80.617,786.061C80.955,785.754 81.125,785.383 81.125,784.95C81.125,784.027 80.832,783.289 80.246,782.737C79.662,782.185 78.861,781.908 77.846,781.908L77.17,781.908Z" style="fill:rgb(4,8,15);fill-rule:nonzero;"/>
    </g>
</svg>
