<?xml version="1.0" encoding="UTF-8" standalone="no"?>
<!DOCTYPE svg PUBLIC "-//W3C//DTD SVG 1.1//EN" "http://www.w3.org/Graphics/SVG/1.1/DTD/svg11.dtd">
<svg width="100%" height="100%" viewBox="0 0 1724 841" version="1.1" xmlns="http://www.w3.org/2000/svg" xmlns:xlink="http://www.w3.org/1999/xlink" xml:space="preserve" style="fill-rule:evenodd;clip-rule:evenodd;stroke-linecap:round;stroke-miterlimit:10;">
    <metadata>
      <rdf:RDF xmlns:rdf="http://www.w3.org/1999/02/22-rdf-syntax-ns#"
               xmlns:rdfs="http://www.w3.org/2000/01/rdf-schema#"
               xmlns:dc="http://purl.org/dc/elements/1.1/">
        <rdf:Description about="https://cusy.io/images/combine-git-dvc.svg">
          <dc:title>Combine Git and DVC</dc:title>
          <dc:creator>André, Henze, Berlin</dc:creator>
          <dc:contributor>Veit Schiele, Berlin</dc:contributor>
          <dc:publisher>Cusy GmbH</dc:publisher>
          <dc:subject>Git, DVC, Machine Learning</dc:subject>
          <dc:description>Stages of collaboration between Git and DVC</dc:description>
          <dc:identifier>https://cusy.io/images/combine-git-dvc.svg</dc:identifier>
          <dc:relation>https://cusy.io/de/blog/versionskontrolle-fur-machine-learning-projekte-in-informatik-aktuell-vom-11-august-2020</dc:relation>
          <dc:source>https://cusy.io/</dc:source>
          <dc:rights>Copyright 2020–2021 Cusy GmbH</dc:rights>
          <dc:format>image/svg+xml</dc:format>
          <dc:type>Image</dc:type>
          <dc:date>2020-06-09</dc:date>
          <dc:language>en</dc:language>
        </rdf:Description>
      </rdf:RDF>
    </metadata>
    <g transform="matrix(0.189901,0,0,1,0.334571,0.684)">
        <rect x="0.413" y="559.034" width="1723" height="280.282" style="fill:rgb(182,242,0);fill-rule:nonzero;"/>
    </g>
    <g transform="matrix(1,0,0,1,5.68434e-14,0.684)">
        <rect x="-0" y="-0.001" width="1723.22" height="839.791" style="fill:none;fill-rule:nonzero;"/>
    </g>
    <g transform="matrix(1,0,0,1,5.68434e-14,0.684)">
        <path d="M150.469,712.254L195.469,712.254L208.969,725.754L208.969,797.754L150.469,797.754L150.469,712.254Z" style="fill:white;fill-rule:nonzero;"/>
    </g>
    <g transform="matrix(1,0,0,1,5.68434e-14,0.684)">
        <path d="M208.969,725.754L208.969,793.254C208.969,795.729 206.944,797.754 204.469,797.754L154.969,797.754C152.494,797.754 150.469,795.729 150.469,793.254L150.469,716.754C150.469,714.278 152.494,712.254 154.969,712.253L195.469,712.252" style="fill:none;fill-rule:nonzero;stroke:rgb(132,14,255);stroke-width:4.5px;"/>
    </g>
    <g transform="matrix(1,0,0,1,5.68434e-14,0.684)">
        <path d="M161.719,743.754L197.719,743.754" style="fill:none;fill-rule:nonzero;stroke:rgb(132,14,255);stroke-width:4.5px;"/>
    </g>
    <g transform="matrix(1,0,0,1,5.68434e-14,0.684)">
        <rect x="161.719" y="734.754" width="36" height="54" style="fill:none;fill-rule:nonzero;stroke:rgb(132,14,255);stroke-width:4.5px;stroke-linecap:square;"/>
    </g>
    <g transform="matrix(1,0,0,1,5.68434e-14,0.684)">
        <path d="M161.719,752.754L197.719,752.754" style="fill:none;fill-rule:nonzero;stroke:rgb(132,14,255);stroke-width:4.5px;"/>
    </g>
    <g transform="matrix(1,0,0,1,5.68434e-14,0.684)">
        <path d="M161.719,761.754L197.719,761.754" style="fill:none;fill-rule:nonzero;stroke:rgb(132,14,255);stroke-width:4.5px;"/>
    </g>
    <g transform="matrix(1,0,0,1,5.68434e-14,0.684)">
        <path d="M161.719,770.754L197.719,770.754" style="fill:none;fill-rule:nonzero;stroke:rgb(132,14,255);stroke-width:4.5px;"/>
    </g>
    <g transform="matrix(1,0,0,1,5.68434e-14,0.684)">
        <path d="M161.719,779.754L197.719,779.754" style="fill:none;fill-rule:nonzero;stroke:rgb(132,14,255);stroke-width:4.5px;"/>
    </g>
    <g transform="matrix(1,0,0,1,5.68434e-14,0.684)">
        <path d="M170.719,788.754L170.719,734.758" style="fill:none;fill-rule:nonzero;stroke:rgb(132,14,255);stroke-width:4.5px;"/>
    </g>
    <g transform="matrix(1,0,0,1,5.68434e-14,0.684)">
        <path d="M179.719,788.754L179.719,734.758" style="fill:none;fill-rule:nonzero;stroke:rgb(132,14,255);stroke-width:4.5px;"/>
    </g>
    <g transform="matrix(1,0,0,1,5.68434e-14,0.684)">
        <path d="M188.719,788.754L188.719,734.758" style="fill:none;fill-rule:nonzero;stroke:rgb(132,14,255);stroke-width:4.5px;"/>
    </g>
    <g transform="matrix(1,0,0,1,5.68434e-14,0.684)">
        <path d="M208.969,725.754L199.969,725.754C197.494,725.754 195.469,723.729 195.469,721.254L195.469,712.252" style="fill:none;fill-rule:nonzero;stroke:rgb(132,14,255);stroke-width:4.5px;"/>
    </g>
    <g transform="matrix(1,0,0,1,5.68434e-14,0.684)">
        <path d="M195.469,712.252L208.969,725.754" style="fill:none;fill-rule:nonzero;stroke:rgb(132,14,255);stroke-width:4.5px;"/>
    </g>
    <g transform="matrix(1,0,0,1,5.68434e-14,0.684)">
        <rect x="106.219" y="813.998" width="147" height="20.984" style="fill:none;fill-rule:nonzero;"/>
    </g>
    <g transform="matrix(1,0,0,1,5.68434e-14,0.684)">
        <path d="M148.719,821.015L148.719,827.495L146.991,827.495L146.991,822.095C146.991,821.003 146.895,820.281 146.706,819.926C146.516,819.572 146.163,819.395 145.649,819.395C145.324,819.395 144.992,819.575 144.65,819.935C144.309,820.295 144.139,820.655 144.139,821.015L144.139,827.495L142.377,827.495L142.377,818.135L144.055,818.135L144.088,819.215L144.121,819.215C144.769,818.375 145.503,817.955 146.319,817.955C146.81,817.955 147.208,818.063 147.509,818.279C147.812,818.495 148.079,818.867 148.315,819.395L148.348,819.395C149.008,818.435 149.802,817.955 150.73,817.955C151.647,817.955 152.301,818.222 152.693,818.756C153.085,819.29 153.281,820.223 153.281,821.555L153.281,827.495L151.552,827.495L151.552,822.095C151.552,821.003 151.457,820.281 151.267,819.926C151.077,819.572 150.725,819.395 150.21,819.395C149.886,819.395 149.556,819.575 149.22,819.935C148.887,820.295 148.719,820.656 148.719,821.015Z" style="fill:rgb(132,14,255);fill-rule:nonzero;"/>
    </g>
    <g transform="matrix(1,0,0,1,5.68434e-14,0.684)">
        <path d="M156.117,819.224C156.844,818.378 157.85,817.955 159.137,817.955C160.424,817.955 161.43,818.378 162.157,819.224C162.885,820.07 163.248,821.267 163.248,822.815C163.248,824.363 162.885,825.56 162.157,826.406C161.43,827.252 160.424,827.675 159.137,827.675C157.85,827.675 156.844,827.252 156.117,826.406C155.39,825.56 155.027,824.363 155.027,822.815C155.027,821.267 155.39,820.07 156.117,819.224ZM156.822,822.815C156.822,825.095 157.593,826.235 159.136,826.235C160.68,826.235 161.451,825.095 161.451,822.815C161.451,820.535 160.68,819.395 159.136,819.395C157.594,819.395 156.822,820.535 156.822,822.815Z" style="fill:rgb(132,14,255);fill-rule:nonzero;"/>
    </g>
    <g transform="matrix(1,0,0,1,5.68434e-14,0.684)">
        <path d="M164.739,822.815C164.739,821.279 165.061,820.085 165.704,819.233C166.348,818.381 167.2,817.955 168.263,817.955C169.246,817.955 170.103,818.345 170.829,819.125L170.862,819.125L170.862,813.995L172.624,813.995L172.624,827.495L170.98,827.495L170.946,826.325L170.913,826.325C170.488,826.829 170.077,827.18 169.68,827.378C169.284,827.576 168.811,827.675 168.263,827.675C167.245,827.675 166.404,827.237 165.739,826.361C165.072,825.486 164.739,824.303 164.739,822.815ZM170.862,824.165L170.862,821.465C170.862,820.925 170.647,820.445 170.216,820.025C169.785,819.605 169.274,819.395 168.681,819.395C167.227,819.395 166.5,820.535 166.5,822.815C166.5,823.967 166.693,824.825 167.079,825.389C167.465,825.953 167.999,826.235 168.681,826.235C169.274,826.235 169.785,826.026 170.216,825.605C170.647,825.185 170.862,824.705 170.862,824.165Z" style="fill:rgb(132,14,255);fill-rule:nonzero;"/>
    </g>
    <g transform="matrix(1,0,0,1,5.68434e-14,0.684)">
        <path d="M176.314,823.355C176.416,825.299 177.332,826.271 179.066,826.271C179.815,826.271 180.626,826.079 181.498,825.695L181.498,827.279C180.57,827.543 179.703,827.675 178.898,827.675C177.5,827.675 176.423,827.267 175.669,826.451C174.915,825.635 174.537,824.423 174.537,822.815C174.537,821.207 174.875,819.995 175.552,819.179C176.229,818.364 177.204,817.955 178.479,817.955C179.687,817.955 180.59,818.342 181.189,819.116C181.787,819.89 182.086,821.093 182.086,822.725C182.086,822.893 182.069,823.103 182.035,823.355L176.314,823.355ZM176.314,821.951L180.357,821.951C180.324,820.223 179.698,819.359 178.478,819.359C177.819,819.359 177.31,819.564 176.952,819.971C176.594,820.379 176.382,821.039 176.314,821.951Z" style="fill:rgb(132,14,255);fill-rule:nonzero;"/>
    </g>
    <g transform="matrix(1,0,0,1,5.68434e-14,0.684)">
        <rect x="184.585" y="813.995" width="1.846" height="13.5" style="fill:rgb(132,14,255);fill-rule:nonzero;"/>
    </g>
    <g transform="matrix(1,0,0,1,5.68434e-14,0.684)">
        <rect x="189.768" y="824.795" width="2.182" height="2.7" style="fill:rgb(132,14,255);fill-rule:nonzero;"/>
    </g>
    <g transform="matrix(1,0,0,1,5.68434e-14,0.684)">
        <path d="M202.586,822.815C202.586,824.303 202.253,825.485 201.587,826.361C200.922,827.237 200.08,827.675 199.063,827.675C198.079,827.675 197.223,827.285 196.497,826.505L196.464,826.505L196.464,831.455L194.702,831.455L194.702,818.135L196.346,818.135L196.38,819.305L196.413,819.305C196.838,818.801 197.249,818.45 197.646,818.252C198.042,818.054 198.515,817.955 199.063,817.955C200.125,817.955 200.978,818.381 201.622,819.233C202.263,820.085 202.586,821.28 202.586,822.815ZM196.463,824.165C196.463,824.717 196.678,825.2 197.109,825.614C197.54,826.028 198.051,826.235 198.644,826.235C199.315,826.235 199.846,825.947 200.238,825.371C200.629,824.795 200.825,823.943 200.825,822.815C200.825,820.535 200.097,819.395 198.644,819.395C198.051,819.395 197.54,819.602 197.109,820.016C196.678,820.43 196.463,820.913 196.463,821.465L196.463,824.165Z" style="fill:rgb(132,14,255);fill-rule:nonzero;"/>
    </g>
    <g transform="matrix(1,0,0,1,5.68434e-14,0.684)">
        <path d="M206.377,822.995L206.343,822.995L206.343,827.495L204.582,827.495L204.582,813.995L206.343,813.995L206.343,822.275L206.377,822.275L210.034,818.135L212.131,818.135L208.105,822.635L212.131,827.495L210.034,827.495L206.377,822.995Z" style="fill:rgb(132,14,255);fill-rule:nonzero;"/>
    </g>
    <g transform="matrix(1,0,0,1,5.68434e-14,0.684)">
        <rect x="214.63" y="813.995" width="1.846" height="13.5" style="fill:rgb(132,14,255);fill-rule:nonzero;"/>
    </g>
    <g transform="matrix(1,0,0,1,5.68434e-14,0.684)">
        <rect x="11.856" y="704.263" width="76.775" height="130.738" style="fill:none;fill-rule:nonzero;"/>
    </g>
    <g transform="matrix(1,0,0,1,5.68434e-14,0.684)">
        <rect x="11.859" y="816.977" width="15.862" height="2.308" style="fill:rgb(4,8,15);fill-rule:nonzero;"/>
    </g>
    <g transform="matrix(1,0,0,1,5.68434e-14,0.684)">
        <path d="M18.003,812.595C17.009,811.686 16.512,810.428 16.512,808.819C16.512,807.212 17.009,805.953 18.003,805.044C18.997,804.135 20.403,803.681 22.223,803.681C24.043,803.681 25.449,804.136 26.443,805.044C27.437,805.953 27.934,807.212 27.934,808.819C27.934,810.427 27.437,811.686 26.443,812.595C25.449,813.504 24.043,813.958 22.223,813.958C20.403,813.958 18.997,813.504 18.003,812.595ZM22.222,811.714C24.901,811.714 26.241,810.749 26.241,808.819C26.241,806.889 24.901,805.924 22.222,805.924C19.543,805.924 18.203,806.889 18.203,808.819C18.203,810.749 19.544,811.714 22.222,811.714Z" style="fill:rgb(4,8,15);fill-rule:nonzero;"/>
    </g>
    <g transform="matrix(1,0,0,1,5.68434e-14,0.684)">
        <path d="M22.222,801.918C20.375,801.918 18.961,801.478 17.982,800.597C17.002,799.716 16.511,798.478 16.511,796.884C16.511,795.905 16.617,794.892 16.828,793.843L18.732,793.843C18.408,794.822 18.245,795.78 18.245,796.717C18.245,797.682 18.562,798.405 19.197,798.888C19.832,799.371 20.84,799.612 22.221,799.612C23.631,799.612 24.647,799.357 25.267,798.846C25.887,798.336 26.198,797.556 26.198,796.507C26.198,795.598 26.001,794.675 25.605,793.738L27.508,793.738C27.79,794.717 27.932,795.696 27.932,796.675C27.932,798.353 27.449,799.647 26.483,800.555C25.518,801.464 24.097,801.918 22.222,801.918Z" style="fill:rgb(4,8,15);fill-rule:nonzero;"/>
    </g>
    <g transform="matrix(1,0,0,1,5.68434e-14,0.684)">
        <path d="M16.511,786.942C16.511,785.18 16.828,783.971 17.463,783.314C18.098,782.657 19.261,782.328 20.953,782.328L27.721,782.328L27.721,784.384L26.135,784.426L26.135,784.468C27.333,785.28 27.933,786.489 27.933,788.097C27.933,789.048 27.622,789.827 27.002,790.436C26.381,791.044 25.564,791.348 24.548,791.348C23.308,791.348 22.346,790.88 21.661,789.943C20.977,789.006 20.636,787.587 20.636,785.685L20.636,784.531L20.213,784.531C19.465,784.531 18.943,784.706 18.648,785.055C18.352,785.405 18.204,786.034 18.204,786.943C18.204,788.034 18.473,789.293 19.008,790.719L17.147,790.719C16.723,789.417 16.511,788.159 16.511,786.942ZM22.18,784.53L22.18,785.684C22.18,786.83 22.373,787.694 22.761,788.274C23.15,788.855 23.674,789.145 24.337,789.145C24.858,789.145 25.288,788.991 25.627,788.684C25.965,788.376 26.135,788.006 26.135,787.572C26.135,786.649 25.842,785.912 25.257,785.359C24.672,784.807 23.871,784.53 22.857,784.53L22.18,784.53Z" style="fill:rgb(4,8,15);fill-rule:nonzero;"/>
    </g>
    <g transform="matrix(1,0,0,1,5.68434e-14,0.684)">
        <rect x="11.859" y="776.371" width="15.862" height="2.307" style="fill:rgb(4,8,15);fill-rule:nonzero;"/>
    </g>
    <g transform="matrix(1,0,0,1,5.68434e-14,0.684)">
        <path d="M44.219,818.258L53.314,816.433L53.314,816.391L44.219,814.629L44.219,811.692L53.314,809.93L53.314,809.888L44.219,808.064L44.219,805.756L55.217,808.588L55.217,811.42L46.334,813.182L46.334,813.224L55.217,814.986L55.217,817.818L44.219,820.649L44.219,818.258Z" style="fill:rgb(4,8,15);fill-rule:nonzero;"/>
    </g>
    <g transform="matrix(1,0,0,1,5.68434e-14,0.684)">
        <path d="M45.498,802.946C44.504,802.037 44.007,800.779 44.007,799.171C44.007,797.563 44.504,796.305 45.498,795.396C46.492,794.487 47.898,794.033 49.718,794.033C51.538,794.033 52.944,794.487 53.938,795.396C54.932,796.305 55.429,797.563 55.429,799.171C55.429,800.779 54.932,802.038 53.938,802.946C52.944,803.855 51.538,804.309 49.718,804.309C47.898,804.309 46.492,803.855 45.498,802.946ZM49.718,802.065C52.397,802.065 53.737,801.1 53.737,799.17C53.737,797.24 52.397,796.275 49.718,796.275C47.039,796.275 45.699,797.24 45.699,799.17C45.699,801.1 47.039,802.065 49.718,802.065Z" style="fill:rgb(4,8,15);fill-rule:nonzero;"/>
    </g>
    <g transform="matrix(1,0,0,1,5.68434e-14,0.684)">
        <path d="M46.016,784.614L46.016,785.033C46.016,786.543 46.337,787.655 46.978,788.368C47.621,789.081 48.604,789.438 49.929,789.438L55.216,789.438L55.216,791.745L44.219,791.745L44.219,789.543L46.334,789.543L46.334,789.501C45.686,789.054 45.171,788.431 44.79,787.634C44.409,786.837 44.219,785.97 44.219,785.033L44.219,784.614L46.016,784.614Z" style="fill:rgb(4,8,15);fill-rule:nonzero;"/>
    </g>
    <g transform="matrix(1,0,0,1,5.68434e-14,0.684)">
        <path d="M49.929,779.664L49.929,779.706L55.216,779.706L55.216,781.908L39.354,781.908L39.354,779.706L49.083,779.706L49.083,779.664L44.219,775.091L44.219,772.469L49.506,777.503L55.217,772.469L55.217,775.091L49.929,779.664Z" style="fill:rgb(4,8,15);fill-rule:nonzero;"/>
    </g>
    <g transform="matrix(1,0,0,1,5.68434e-14,0.684)">
        <path d="M41.68,769.344L39.354,769.344L39.354,767.037L41.68,767.037L41.68,769.344ZM55.217,769.344L44.219,769.344L44.219,767.037L55.217,767.037L55.217,769.344Z" style="fill:rgb(4,8,15);fill-rule:nonzero;"/>
    </g>
    <g transform="matrix(1,0,0,1,5.68434e-14,0.684)">
        <path d="M45.594,761.143C44.536,760.136 44.007,758.997 44.007,757.724C44.007,756.451 44.37,755.521 45.097,754.934C45.824,754.347 47.011,754.053 48.66,754.053L55.217,754.053L55.217,756.214L48.978,756.214C47.709,756.214 46.845,756.368 46.387,756.675C45.929,756.982 45.699,757.542 45.699,758.353C45.699,759.011 45.992,759.629 46.577,760.209C47.162,760.79 47.786,761.08 48.449,761.08L55.217,761.08L55.217,763.282L44.219,763.282L44.219,761.227L45.594,761.185L45.594,761.143Z" style="fill:rgb(4,8,15);fill-rule:nonzero;"/>
    </g>
    <g transform="matrix(1,0,0,1,5.68434e-14,0.684)">
        <path d="M58.389,747.887C58.389,746.783 58.209,745.929 57.849,745.328C57.49,744.727 57.021,744.426 56.443,744.426C55.273,744.426 54.688,745.496 54.688,747.635C54.688,749.173 54.507,750.264 54.148,750.907C53.789,751.551 53.243,751.872 52.509,751.872C51.959,751.872 51.339,751.564 50.648,750.949C49.958,751.704 49.069,752.082 47.983,752.082C46.813,752.082 45.858,751.697 45.118,750.928C44.377,750.159 44.007,749.18 44.007,747.991C44.007,746.551 44.459,745.383 45.361,744.488L45.361,744.446L44.219,744.426L44.219,742.433L48.026,742.433C49.254,742.433 50.194,742.835 50.85,743.639C51.505,744.443 51.833,745.649 51.833,747.257C51.833,748.11 51.713,748.872 51.474,749.544C51.798,749.837 52.059,749.984 52.256,749.984C52.538,749.984 52.742,749.802 52.869,749.439C52.996,749.076 53.059,748.362 53.059,747.299C53.059,745.537 53.317,744.251 53.83,743.44C54.346,742.629 55.124,742.224 56.168,742.224C57.408,742.224 58.37,742.7 59.055,743.65C59.739,744.601 60.08,746.013 60.08,747.887C60.08,749.384 59.798,750.782 59.234,752.082L57.331,752.082C58.037,750.796 58.389,749.397 58.389,747.887ZM48.047,749.943C48.795,749.943 49.38,749.712 49.803,749.251C50.226,748.79 50.437,748.147 50.437,747.321C50.437,746.538 50.222,745.912 49.792,745.444C49.362,744.975 48.78,744.741 48.047,744.741C47.285,744.741 46.683,744.989 46.238,745.486C45.795,745.982 45.572,746.629 45.572,747.426C45.572,748.181 45.801,748.789 46.26,749.251C46.719,749.713 47.314,749.943 48.047,749.943Z" style="fill:rgb(4,8,15);fill-rule:nonzero;"/>
    </g>
    <g transform="matrix(1,0,0,1,5.68434e-14,0.684)">
        <path d="M71.502,816.139C71.502,814.377 71.819,813.168 72.454,812.51C73.089,811.853 74.252,811.525 75.944,811.525L82.712,811.525L82.712,813.58L81.126,813.622L81.126,813.664C82.324,814.475 82.924,815.685 82.924,817.293C82.924,818.244 82.613,819.023 81.993,819.631C81.372,820.239 80.555,820.544 79.539,820.544C78.299,820.544 77.337,820.076 76.652,819.139C75.968,818.202 75.627,816.783 75.627,814.881L75.627,813.727L75.204,813.727C74.456,813.727 73.934,813.902 73.639,814.251C73.344,814.6 73.195,815.23 73.195,816.139C73.195,817.23 73.464,818.488 73.999,819.914L72.138,819.914C71.714,818.614 71.502,817.356 71.502,816.139ZM77.171,813.727L77.171,814.881C77.171,816.027 77.364,816.891 77.752,817.471C78.141,818.051 78.665,818.341 79.328,818.341C79.849,818.341 80.279,818.188 80.618,817.88C80.956,817.573 81.126,817.202 81.126,816.769C81.126,815.846 80.833,815.108 80.248,814.556C79.663,814.004 78.862,813.727 77.848,813.727L77.171,813.727Z" style="fill:rgb(4,8,15);fill-rule:nonzero;"/>
    </g>
    <g transform="matrix(1,0,0,1,5.68434e-14,0.684)">
        <path d="M73.511,801.477L73.511,801.897C73.511,803.407 73.832,804.519 74.473,805.232C75.116,805.945 76.099,806.302 77.424,806.302L82.711,806.302L82.711,808.609L71.713,808.609L71.713,806.406L73.828,806.406L73.828,806.364C73.18,805.917 72.665,805.295 72.284,804.497C71.903,803.7 71.713,802.833 71.713,801.896L71.713,801.477L73.511,801.477Z" style="fill:rgb(4,8,15);fill-rule:nonzero;"/>
    </g>
    <g transform="matrix(1,0,0,1,5.68434e-14,0.684)">
        <path d="M77.847,797.807C80.131,797.681 81.273,796.535 81.273,794.367C81.273,793.43 81.047,792.416 80.596,791.325L82.457,791.325C82.768,792.486 82.923,793.57 82.923,794.576C82.923,796.324 82.444,797.67 81.485,798.614C80.526,799.558 79.102,800.03 77.213,800.03C75.324,800.03 73.9,799.608 72.941,798.761C71.982,797.915 71.503,796.695 71.503,795.101C71.503,793.591 71.958,792.461 72.867,791.713C73.777,790.965 75.19,790.591 77.108,790.591C77.305,790.591 77.552,790.612 77.848,790.654L77.848,797.807L77.847,797.807ZM76.197,797.807L76.197,792.752C74.167,792.794 73.152,793.577 73.152,795.102C73.152,795.927 73.391,796.563 73.871,797.011C74.35,797.457 75.126,797.723 76.197,797.807Z" style="fill:rgb(4,8,15);fill-rule:nonzero;"/>
    </g>
    <g transform="matrix(1,0,0,1,5.68434e-14,0.684)">
        <path d="M71.502,784.32C71.502,782.558 71.819,781.349 72.454,780.692C73.089,780.035 74.252,779.706 75.944,779.706L82.712,779.706L82.712,781.761L81.126,781.803L81.126,781.845C82.324,782.656 82.924,783.866 82.924,785.474C82.924,786.425 82.613,787.204 81.993,787.812C81.372,788.42 80.555,788.725 79.539,788.725C78.299,788.725 77.337,788.257 76.652,787.32C75.968,786.383 75.627,784.964 75.627,783.062L75.627,781.908L75.204,781.908C74.456,781.908 73.934,782.083 73.639,782.432C73.344,782.781 73.195,783.411 73.195,784.32C73.195,785.411 73.464,786.669 73.999,788.095L72.138,788.095C71.714,786.795 71.502,785.537 71.502,784.32ZM77.171,781.908L77.171,783.062C77.171,784.208 77.364,785.072 77.752,785.652C78.141,786.233 78.665,786.523 79.328,786.523C79.849,786.523 80.279,786.369 80.618,786.061C80.956,785.754 81.126,785.383 81.126,784.95C81.126,784.027 80.833,783.289 80.248,782.737C79.663,782.185 78.862,781.908 77.848,781.908L77.171,781.908Z" style="fill:rgb(4,8,15);fill-rule:nonzero;"/>
    </g>
</svg>
