<?xml version="1.0" encoding="utf-8"?>
<!DOCTYPE svg PUBLIC "-//W3C//DTD SVG 1.1//EN" "http://www.w3.org/Graphics/SVG/1.1/DTD/svg11.dtd">
<svg version="1.1" id="Ebene_1" xmlns="http://www.w3.org/2000/svg" xmlns:xlink="http://www.w3.org/1999/xlink" x="0px" y="0px"
	 width="210px" height="210px" viewBox="0 0 210 210" enable-background="new 0 0 210 210" xml:space="preserve">
<rect fill="#FFFFFF" width="210" height="210"/>
<path d="M6.774,203.226h6.774v-6.774H6.774V203.226 M13.548,203.226h6.774v-6.774h-6.774V203.226 M20.323,203.226h6.774v-6.774
	h-6.774V203.226 M27.097,203.226h6.774v-6.774h-6.774V203.226 M33.871,203.226h6.774v-6.774h-6.774V203.226 M40.646,203.226h6.774
	v-6.774h-6.774V203.226 M47.419,203.226h6.774v-6.774h-6.774V203.226 M60.968,203.226h6.774v-6.774h-6.774V203.226 M74.516,203.226
	h6.774v-6.774h-6.774V203.226 M88.064,203.226h6.774v-6.774h-6.774V203.226 M94.839,203.226h6.774v-6.774h-6.774V203.226
	 M101.613,203.226h6.774v-6.774h-6.774V203.226 M115.161,203.226h6.774v-6.774h-6.774V203.226 M121.936,203.226h6.774v-6.774h-6.774
	V203.226 M135.484,203.226h6.774v-6.774h-6.774V203.226 M162.581,203.226h6.774v-6.774h-6.774V203.226 M169.354,203.226h6.774
	v-6.774h-6.774V203.226 M182.903,203.226h6.774v-6.774h-6.774V203.226 M6.774,196.451h6.774v-6.773H6.774V196.451 M47.419,196.451
	h6.774v-6.773h-6.774V196.451 M60.968,196.451h6.774v-6.773h-6.774V196.451 M81.29,196.451h6.774v-6.773H81.29V196.451
	 M88.064,196.451h6.774v-6.773h-6.774V196.451 M108.387,196.451h6.774v-6.773h-6.774V196.451 M135.484,196.451h6.774v-6.773h-6.774
	V196.451 M142.258,196.451h6.774v-6.773h-6.774V196.451 M169.354,196.451h6.774v-6.773h-6.774V196.451 M176.129,196.451h6.774
	v-6.773h-6.774V196.451 M189.677,196.451h6.774v-6.773h-6.774V196.451 M6.774,189.678h6.774v-6.774H6.774V189.678 M20.323,189.678
	h6.774v-6.774h-6.774V189.678 M27.097,189.678h6.774v-6.774h-6.774V189.678 M33.871,189.678h6.774v-6.774h-6.774V189.678
	 M47.419,189.678h6.774v-6.774h-6.774V189.678 M60.968,189.678h6.774v-6.774h-6.774V189.678 M94.839,189.678h6.774v-6.774h-6.774
	V189.678 M101.613,189.678h6.774v-6.774h-6.774V189.678 M108.387,189.678h6.774v-6.774h-6.774V189.678 M115.161,189.678h6.774
	v-6.774h-6.774V189.678 M121.936,189.678h6.774v-6.774h-6.774V189.678 M128.71,189.678h6.774v-6.774h-6.774V189.678
	 M149.033,189.678h6.774v-6.774h-6.774V189.678 M155.807,189.678h6.774v-6.774h-6.774V189.678 M162.581,189.678h6.774v-6.774h-6.774
	V189.678 M169.354,189.678h6.774v-6.774h-6.774V189.678 M176.129,189.678h6.774v-6.774h-6.774V189.678 M182.903,189.678h6.774
	v-6.774h-6.774V189.678 M189.677,189.678h6.774v-6.774h-6.774V189.678 M6.774,182.903h6.774v-6.774H6.774V182.903 M20.323,182.903
	h6.774v-6.774h-6.774V182.903 M27.097,182.903h6.774v-6.774h-6.774V182.903 M33.871,182.903h6.774v-6.774h-6.774V182.903
	 M47.419,182.903h6.774v-6.774h-6.774V182.903 M60.968,182.903h6.774v-6.774h-6.774V182.903 M67.742,182.903h6.774v-6.774h-6.774
	V182.903 M74.516,182.903h6.774v-6.774h-6.774V182.903 M88.064,182.903h6.774v-6.774h-6.774V182.903 M101.613,182.903h6.774v-6.774
	h-6.774V182.903 M115.161,182.903h6.774v-6.774h-6.774V182.903 M135.484,182.903h6.774v-6.774h-6.774V182.903 M142.258,182.903
	h6.774v-6.774h-6.774V182.903 M176.129,182.903h6.774v-6.774h-6.774V182.903 M182.903,182.903h6.774v-6.774h-6.774V182.903
	 M189.677,182.903h6.774v-6.774h-6.774V182.903 M196.452,182.903h6.774v-6.774h-6.774V182.903 M6.774,176.129h6.774v-6.774H6.774
	V176.129 M20.323,176.129h6.774v-6.774h-6.774V176.129 M27.097,176.129h6.774v-6.774h-6.774V176.129 M33.871,176.129h6.774v-6.774
	h-6.774V176.129 M47.419,176.129h6.774v-6.774h-6.774V176.129 M60.968,176.129h6.774v-6.774h-6.774V176.129 M74.516,176.129h6.774
	v-6.774h-6.774V176.129 M81.29,176.129h6.774v-6.774H81.29V176.129 M88.064,176.129h6.774v-6.774h-6.774V176.129 M94.839,176.129
	h6.774v-6.774h-6.774V176.129 M101.613,176.129h6.774v-6.774h-6.774V176.129 M121.936,176.129h6.774v-6.774h-6.774V176.129
	 M142.258,176.129h6.774v-6.774h-6.774V176.129 M149.033,176.129h6.774v-6.774h-6.774V176.129 M155.807,176.129h6.774v-6.774h-6.774
	V176.129 M162.581,176.129h6.774v-6.774h-6.774V176.129 M169.354,176.129h6.774v-6.774h-6.774V176.129 M182.903,176.129h6.774
	v-6.774h-6.774V176.129 M196.452,176.129h6.774v-6.774h-6.774V176.129 M6.774,169.354h6.774v-6.774H6.774V169.354 M47.419,169.354
	h6.774v-6.774h-6.774V169.354 M67.742,169.354h6.774v-6.774h-6.774V169.354 M74.516,169.354h6.774v-6.774h-6.774V169.354
	 M81.29,169.354h6.774v-6.774H81.29V169.354 M108.387,169.354h6.774v-6.774h-6.774V169.354 M135.484,169.354h6.774v-6.774h-6.774
	V169.354 M142.258,169.354h6.774v-6.774h-6.774V169.354 M169.354,169.354h6.774v-6.774h-6.774V169.354 M189.677,169.354h6.774
	v-6.774h-6.774V169.354 M6.774,162.58h6.774v-6.773H6.774V162.58 M13.548,162.58h6.774v-6.773h-6.774V162.58 M20.323,162.58h6.774
	v-6.773h-6.774V162.58 M27.097,162.58h6.774v-6.773h-6.774V162.58 M33.871,162.58h6.774v-6.773h-6.774V162.58 M40.646,162.58h6.774
	v-6.773h-6.774V162.58 M47.419,162.58h6.774v-6.773h-6.774V162.58 M60.968,162.58h6.774v-6.773h-6.774V162.58 M74.516,162.58h6.774
	v-6.773h-6.774V162.58 M81.29,162.58h6.774v-6.773H81.29V162.58 M88.064,162.58h6.774v-6.773h-6.774V162.58 M101.613,162.58h6.774
	v-6.773h-6.774V162.58 M108.387,162.58h6.774v-6.773h-6.774V162.58 M115.161,162.58h6.774v-6.773h-6.774V162.58 M135.484,162.58
	h6.774v-6.773h-6.774V162.58 M142.258,162.58h6.774v-6.773h-6.774V162.58 M155.807,162.58h6.774v-6.773h-6.774V162.58
	 M169.354,162.58h6.774v-6.773h-6.774V162.58 M176.129,162.58h6.774v-6.773h-6.774V162.58 M182.903,162.58h6.774v-6.773h-6.774
	V162.58 M60.968,155.807h6.774v-6.774h-6.774V155.807 M115.161,155.807h6.774v-6.774h-6.774V155.807 M142.258,155.807h6.774v-6.774
	h-6.774V155.807 M169.354,155.807h6.774v-6.774h-6.774V155.807 M176.129,155.807h6.774v-6.774h-6.774V155.807 M182.903,155.807
	h6.774v-6.774h-6.774V155.807 M189.677,155.807h6.774v-6.774h-6.774V155.807 M196.452,155.807h6.774v-6.774h-6.774V155.807
	 M6.774,149.032h6.774v-6.774H6.774V149.032 M47.419,149.032h6.774v-6.774h-6.774V149.032 M54.193,149.032h6.774v-6.774h-6.774
	V149.032 M67.742,149.032h6.774v-6.774h-6.774V149.032 M74.516,149.032h6.774v-6.774h-6.774V149.032 M88.064,149.032h6.774v-6.774
	h-6.774V149.032 M94.839,149.032h6.774v-6.774h-6.774V149.032 M101.613,149.032h6.774v-6.774h-6.774V149.032 M121.936,149.032h6.774
	v-6.774h-6.774V149.032 M135.484,149.032h6.774v-6.774h-6.774V149.032 M142.258,149.032h6.774v-6.774h-6.774V149.032
	 M149.033,149.032h6.774v-6.774h-6.774V149.032 M155.807,149.032h6.774v-6.774h-6.774V149.032 M162.581,149.032h6.774v-6.774h-6.774
	V149.032 M169.354,149.032h6.774v-6.774h-6.774V149.032 M182.903,149.032h6.774v-6.774h-6.774V149.032 M189.677,149.032h6.774
	v-6.774h-6.774V149.032 M196.452,149.032h6.774v-6.774h-6.774V149.032 M6.774,142.258h6.774v-6.774H6.774V142.258 M88.064,142.258
	h6.774v-6.774h-6.774V142.258 M101.613,142.258h6.774v-6.774h-6.774V142.258 M115.161,142.258h6.774v-6.774h-6.774V142.258
	 M149.033,142.258h6.774v-6.774h-6.774V142.258 M162.581,142.258h6.774v-6.774h-6.774V142.258 M169.354,142.258h6.774v-6.774h-6.774
	V142.258 M189.677,142.258h6.774v-6.774h-6.774V142.258 M6.774,135.483h6.774v-6.774H6.774V135.483 M27.097,135.483h6.774v-6.774
	h-6.774V135.483 M40.646,135.483h6.774v-6.774h-6.774V135.483 M47.419,135.483h6.774v-6.774h-6.774V135.483 M67.742,135.483h6.774
	v-6.774h-6.774V135.483 M101.613,135.483h6.774v-6.774h-6.774V135.483 M108.387,135.483h6.774v-6.774h-6.774V135.483
	 M115.161,135.483h6.774v-6.774h-6.774V135.483 M121.936,135.483h6.774v-6.774h-6.774V135.483 M128.71,135.483h6.774v-6.774h-6.774
	V135.483 M162.581,135.483h6.774v-6.774h-6.774V135.483 M169.354,135.483h6.774v-6.774h-6.774V135.483 M182.903,135.483h6.774
	v-6.774h-6.774V135.483 M6.774,128.709h6.774v-6.773H6.774V128.709 M13.548,128.709h6.774v-6.773h-6.774V128.709 M27.097,128.709
	h6.774v-6.773h-6.774V128.709 M33.871,128.709h6.774v-6.773h-6.774V128.709 M88.064,128.709h6.774v-6.773h-6.774V128.709
	 M94.839,128.709h6.774v-6.773h-6.774V128.709 M128.71,128.709h6.774v-6.773h-6.774V128.709 M135.484,128.709h6.774v-6.773h-6.774
	V128.709 M142.258,128.709h6.774v-6.773h-6.774V128.709 M149.033,128.709h6.774v-6.773h-6.774V128.709 M155.807,128.709h6.774
	v-6.773h-6.774V128.709 M169.354,128.709h6.774v-6.773h-6.774V128.709 M182.903,128.709h6.774v-6.773h-6.774V128.709
	 M196.452,128.709h6.774v-6.773h-6.774V128.709 M6.774,121.936h6.774v-6.774H6.774V121.936 M20.323,121.936h6.774v-6.774h-6.774
	V121.936 M27.097,121.936h6.774v-6.774h-6.774V121.936 M40.646,121.936h6.774v-6.774h-6.774V121.936 M47.419,121.936h6.774v-6.774
	h-6.774V121.936 M54.193,121.936h6.774v-6.774h-6.774V121.936 M60.968,121.936h6.774v-6.774h-6.774V121.936 M74.516,121.936h6.774
	v-6.774h-6.774V121.936 M81.29,121.936h6.774v-6.774H81.29V121.936 M94.839,121.936h6.774v-6.774h-6.774V121.936 M121.936,121.936
	h6.774v-6.774h-6.774V121.936 M176.129,121.936h6.774v-6.774h-6.774V121.936 M182.903,121.936h6.774v-6.774h-6.774V121.936
	 M40.646,115.161h6.774v-6.774h-6.774V115.161 M54.193,115.161h6.774v-6.774h-6.774V115.161 M60.968,115.161h6.774v-6.774h-6.774
	V115.161 M74.516,115.161h6.774v-6.774h-6.774V115.161 M81.29,115.161h6.774v-6.774H81.29V115.161 M101.613,115.161h6.774v-6.774
	h-6.774V115.161 M115.161,115.161h6.774v-6.774h-6.774V115.161 M162.581,115.161h6.774v-6.774h-6.774V115.161 M189.677,115.161
	h6.774v-6.774h-6.774V115.161 M13.548,108.387h6.774v-6.773h-6.774V108.387 M27.097,108.387h6.774v-6.773h-6.774V108.387
	 M33.871,108.387h6.774v-6.773h-6.774V108.387 M40.646,108.387h6.774v-6.773h-6.774V108.387 M47.419,108.387h6.774v-6.773h-6.774
	V108.387 M54.193,108.387h6.774v-6.773h-6.774V108.387 M60.968,108.387h6.774v-6.773h-6.774V108.387 M67.742,108.387h6.774v-6.773
	h-6.774V108.387 M74.516,108.387h6.774v-6.773h-6.774V108.387 M81.29,108.387h6.774v-6.773H81.29V108.387 M88.064,108.387h6.774
	v-6.773h-6.774V108.387 M108.387,108.387h6.774v-6.773h-6.774V108.387 M115.161,108.387h6.774v-6.773h-6.774V108.387
	 M121.936,108.387h6.774v-6.773h-6.774V108.387 M142.258,108.387h6.774v-6.773h-6.774V108.387 M149.033,108.387h6.774v-6.773h-6.774
	V108.387 M155.807,108.387h6.774v-6.773h-6.774V108.387 M176.129,108.387h6.774v-6.773h-6.774V108.387 M182.903,108.387h6.774
	v-6.773h-6.774V108.387 M6.774,101.613h6.774v-6.774H6.774V101.613 M13.548,101.613h6.774v-6.774h-6.774V101.613 M20.323,101.613
	h6.774v-6.774h-6.774V101.613 M27.097,101.613h6.774v-6.774h-6.774V101.613 M54.193,101.613h6.774v-6.774h-6.774V101.613
	 M94.839,101.613h6.774v-6.774h-6.774V101.613 M101.613,101.613h6.774v-6.774h-6.774V101.613 M115.161,101.613h6.774v-6.774h-6.774
	V101.613 M121.936,101.613h6.774v-6.774h-6.774V101.613 M128.71,101.613h6.774v-6.774h-6.774V101.613 M135.484,101.613h6.774v-6.774
	h-6.774V101.613 M142.258,101.613h6.774v-6.774h-6.774V101.613 M149.033,101.613h6.774v-6.774h-6.774V101.613 M155.807,101.613
	h6.774v-6.774h-6.774V101.613 M162.581,101.613h6.774v-6.774h-6.774V101.613 M169.354,101.613h6.774v-6.774h-6.774V101.613
	 M196.452,101.613h6.774v-6.774h-6.774V101.613 M13.548,94.839h6.774v-6.774h-6.774V94.839 M27.097,94.839h6.774v-6.774h-6.774
	V94.839 M40.646,94.839h6.774v-6.774h-6.774V94.839 M47.419,94.839h6.774v-6.774h-6.774V94.839 M60.968,94.839h6.774v-6.774h-6.774
	V94.839 M67.742,94.839h6.774v-6.774h-6.774V94.839 M74.516,94.839h6.774v-6.774h-6.774V94.839 M88.064,94.839h6.774v-6.774h-6.774
	V94.839 M94.839,94.839h6.774v-6.774h-6.774V94.839 M101.613,94.839h6.774v-6.774h-6.774V94.839 M108.387,94.839h6.774v-6.774
	h-6.774V94.839 M121.936,94.839h6.774v-6.774h-6.774V94.839 M128.71,94.839h6.774v-6.774h-6.774V94.839 M142.258,94.839h6.774
	v-6.774h-6.774V94.839 M162.581,94.839h6.774v-6.774h-6.774V94.839 M176.129,94.839h6.774v-6.774h-6.774V94.839 M182.903,94.839
	h6.774v-6.774h-6.774V94.839 M13.548,88.064h6.774v-6.773h-6.774V88.064 M60.968,88.064h6.774v-6.773h-6.774V88.064 M88.064,88.064
	h6.774v-6.773h-6.774V88.064 M108.387,88.064h6.774v-6.773h-6.774V88.064 M115.161,88.064h6.774v-6.773h-6.774V88.064
	 M128.71,88.064h6.774v-6.773h-6.774V88.064 M135.484,88.064h6.774v-6.773h-6.774V88.064 M149.033,88.064h6.774v-6.773h-6.774
	V88.064 M169.354,88.064h6.774v-6.773h-6.774V88.064 M176.129,88.064h6.774v-6.773h-6.774V88.064 M189.677,88.064h6.774v-6.773
	h-6.774V88.064 M20.323,81.291h6.774v-6.774h-6.774V81.291 M40.646,81.291h6.774v-6.774h-6.774V81.291 M47.419,81.291h6.774v-6.774
	h-6.774V81.291 M74.516,81.291h6.774v-6.774h-6.774V81.291 M108.387,81.291h6.774v-6.774h-6.774V81.291 M115.161,81.291h6.774
	v-6.774h-6.774V81.291 M155.807,81.291h6.774v-6.774h-6.774V81.291 M162.581,81.291h6.774v-6.774h-6.774V81.291 M40.646,74.517
	h6.774v-6.774h-6.774V74.517 M54.193,74.517h6.774v-6.774h-6.774V74.517 M60.968,74.517h6.774v-6.774h-6.774V74.517 M74.516,74.517
	h6.774v-6.774h-6.774V74.517 M88.064,74.517h6.774v-6.774h-6.774V74.517 M101.613,74.517h6.774v-6.774h-6.774V74.517
	 M115.161,74.517h6.774v-6.774h-6.774V74.517 M135.484,74.517h6.774v-6.774h-6.774V74.517 M142.258,74.517h6.774v-6.774h-6.774
	V74.517 M149.033,74.517h6.774v-6.774h-6.774V74.517 M155.807,74.517h6.774v-6.774h-6.774V74.517 M162.581,74.517h6.774v-6.774
	h-6.774V74.517 M169.354,74.517h6.774v-6.774h-6.774V74.517 M196.452,74.517h6.774v-6.774h-6.774V74.517 M6.774,67.742h6.774v-6.774
	H6.774V67.742 M13.548,67.742h6.774v-6.774h-6.774V67.742 M20.323,67.742h6.774v-6.774h-6.774V67.742 M27.097,67.742h6.774v-6.774
	h-6.774V67.742 M33.871,67.742h6.774v-6.774h-6.774V67.742 M47.419,67.742h6.774v-6.774h-6.774V67.742 M54.193,67.742h6.774v-6.774
	h-6.774V67.742 M60.968,67.742h6.774v-6.774h-6.774V67.742 M67.742,67.742h6.774v-6.774h-6.774V67.742 M81.29,67.742h6.774v-6.774
	H81.29V67.742 M94.839,67.742h6.774v-6.774h-6.774V67.742 M101.613,67.742h6.774v-6.774h-6.774V67.742 M121.936,67.742h6.774v-6.774
	h-6.774V67.742 M149.033,67.742h6.774v-6.774h-6.774V67.742 M162.581,67.742h6.774v-6.774h-6.774V67.742 M176.129,67.742h6.774
	v-6.774h-6.774V67.742 M189.677,67.742h6.774v-6.774h-6.774V67.742 M67.742,60.968h6.774v-6.774h-6.774V60.968 M74.516,60.968h6.774
	v-6.774h-6.774V60.968 M81.29,60.968h6.774v-6.774H81.29V60.968 M115.161,60.968h6.774v-6.774h-6.774V60.968 M142.258,60.968h6.774
	v-6.774h-6.774V60.968 M6.774,54.193h6.774V47.42H6.774V54.193 M13.548,54.193h6.774V47.42h-6.774V54.193 M20.323,54.193h6.774
	V47.42h-6.774V54.193 M27.097,54.193h6.774V47.42h-6.774V54.193 M33.871,54.193h6.774V47.42h-6.774V54.193 M40.646,54.193h6.774
	V47.42h-6.774V54.193 M47.419,54.193h6.774V47.42h-6.774V54.193 M60.968,54.193h6.774V47.42h-6.774V54.193 M74.516,54.193h6.774
	V47.42h-6.774V54.193 M88.064,54.193h6.774V47.42h-6.774V54.193 M101.613,54.193h6.774V47.42h-6.774V54.193 M115.161,54.193h6.774
	V47.42h-6.774V54.193 M128.71,54.193h6.774V47.42h-6.774V54.193 M142.258,54.193h6.774V47.42h-6.774V54.193 M155.807,54.193h6.774
	V47.42h-6.774V54.193 M162.581,54.193h6.774V47.42h-6.774V54.193 M169.354,54.193h6.774V47.42h-6.774V54.193 M176.129,54.193h6.774
	V47.42h-6.774V54.193 M182.903,54.193h6.774V47.42h-6.774V54.193 M189.677,54.193h6.774V47.42h-6.774V54.193 M196.452,54.193h6.774
	V47.42h-6.774V54.193 M6.774,47.42h6.774v-6.774H6.774V47.42 M47.419,47.42h6.774v-6.774h-6.774V47.42 M60.968,47.42h6.774v-6.774
	h-6.774V47.42 M67.742,47.42h6.774v-6.774h-6.774V47.42 M81.29,47.42h6.774v-6.774H81.29V47.42 M88.064,47.42h6.774v-6.774h-6.774
	V47.42 M94.839,47.42h6.774v-6.774h-6.774V47.42 M108.387,47.42h6.774v-6.774h-6.774V47.42 M142.258,47.42h6.774v-6.774h-6.774
	V47.42 M155.807,47.42h6.774v-6.774h-6.774V47.42 M196.452,47.42h6.774v-6.774h-6.774V47.42 M6.774,40.646h6.774v-6.774H6.774
	V40.646 M20.323,40.646h6.774v-6.774h-6.774V40.646 M27.097,40.646h6.774v-6.774h-6.774V40.646 M33.871,40.646h6.774v-6.774h-6.774
	V40.646 M47.419,40.646h6.774v-6.774h-6.774V40.646 M67.742,40.646h6.774v-6.774h-6.774V40.646 M101.613,40.646h6.774v-6.774h-6.774
	V40.646 M115.161,40.646h6.774v-6.774h-6.774V40.646 M128.71,40.646h6.774v-6.774h-6.774V40.646 M135.484,40.646h6.774v-6.774
	h-6.774V40.646 M155.807,40.646h6.774v-6.774h-6.774V40.646 M169.354,40.646h6.774v-6.774h-6.774V40.646 M176.129,40.646h6.774
	v-6.774h-6.774V40.646 M182.903,40.646h6.774v-6.774h-6.774V40.646 M196.452,40.646h6.774v-6.774h-6.774V40.646 M6.774,33.871h6.774
	v-6.774H6.774V33.871 M20.323,33.871h6.774v-6.774h-6.774V33.871 M27.097,33.871h6.774v-6.774h-6.774V33.871 M33.871,33.871h6.774
	v-6.774h-6.774V33.871 M47.419,33.871h6.774v-6.774h-6.774V33.871 M60.968,33.871h6.774v-6.774h-6.774V33.871 M67.742,33.871h6.774
	v-6.774h-6.774V33.871 M74.516,33.871h6.774v-6.774h-6.774V33.871 M88.064,33.871h6.774v-6.774h-6.774V33.871 M94.839,33.871h6.774
	v-6.774h-6.774V33.871 M101.613,33.871h6.774v-6.774h-6.774V33.871 M108.387,33.871h6.774v-6.774h-6.774V33.871 M115.161,33.871
	h6.774v-6.774h-6.774V33.871 M121.936,33.871h6.774v-6.774h-6.774V33.871 M135.484,33.871h6.774v-6.774h-6.774V33.871
	 M155.807,33.871h6.774v-6.774h-6.774V33.871 M169.354,33.871h6.774v-6.774h-6.774V33.871 M176.129,33.871h6.774v-6.774h-6.774
	V33.871 M182.903,33.871h6.774v-6.774h-6.774V33.871 M196.452,33.871h6.774v-6.774h-6.774V33.871 M6.774,27.097h6.774v-6.774H6.774
	V27.097 M20.323,27.097h6.774v-6.774h-6.774V27.097 M27.097,27.097h6.774v-6.774h-6.774V27.097 M33.871,27.097h6.774v-6.774h-6.774
	V27.097 M47.419,27.097h6.774v-6.774h-6.774V27.097 M88.064,27.097h6.774v-6.774h-6.774V27.097 M101.613,27.097h6.774v-6.774h-6.774
	V27.097 M108.387,27.097h6.774v-6.774h-6.774V27.097 M115.161,27.097h6.774v-6.774h-6.774V27.097 M128.71,27.097h6.774v-6.774
	h-6.774V27.097 M135.484,27.097h6.774v-6.774h-6.774V27.097 M142.258,27.097h6.774v-6.774h-6.774V27.097 M155.807,27.097h6.774
	v-6.774h-6.774V27.097 M169.354,27.097h6.774v-6.774h-6.774V27.097 M176.129,27.097h6.774v-6.774h-6.774V27.097 M182.903,27.097
	h6.774v-6.774h-6.774V27.097 M196.452,27.097h6.774v-6.774h-6.774V27.097 M6.774,20.322h6.774v-6.773H6.774V20.322 M47.419,20.322
	h6.774v-6.773h-6.774V20.322 M60.968,20.322h6.774v-6.773h-6.774V20.322 M74.516,20.322h6.774v-6.773h-6.774V20.322 M101.613,20.322
	h6.774v-6.773h-6.774V20.322 M108.387,20.322h6.774v-6.773h-6.774V20.322 M121.936,20.322h6.774v-6.773h-6.774V20.322
	 M155.807,20.322h6.774v-6.773h-6.774V20.322 M196.452,20.322h6.774v-6.773h-6.774V20.322 M6.774,13.549h6.774V6.774H6.774V13.549
	 M13.548,13.549h6.774V6.774h-6.774V13.549 M20.323,13.549h6.774V6.774h-6.774V13.549 M27.097,13.549h6.774V6.774h-6.774V13.549
	 M33.871,13.549h6.774V6.774h-6.774V13.549 M40.646,13.549h6.774V6.774h-6.774V13.549 M47.419,13.549h6.774V6.774h-6.774V13.549
	 M74.516,13.549h6.774V6.774h-6.774V13.549 M88.064,13.549h6.774V6.774h-6.774V13.549 M115.161,13.549h6.774V6.774h-6.774V13.549
	 M121.936,13.549h6.774V6.774h-6.774V13.549 M128.71,13.549h6.774V6.774h-6.774V13.549 M135.484,13.549h6.774V6.774h-6.774V13.549
	 M142.258,13.549h6.774V6.774h-6.774V13.549 M155.807,13.549h6.774V6.774h-6.774V13.549 M162.581,13.549h6.774V6.774h-6.774V13.549
	 M169.354,13.549h6.774V6.774h-6.774V13.549 M176.129,13.549h6.774V6.774h-6.774V13.549 M182.903,13.549h6.774V6.774h-6.774V13.549
	 M189.677,13.549h6.774V6.774h-6.774V13.549 M196.452,13.549h6.774V6.774h-6.774V13.549L196.452,13.549z"/>
</svg>
