<?xml version="1.0" encoding="UTF-8"?>
<!DOCTYPE svg  PUBLIC '-//W3C//DTD SVG 1.1//EN'  'http://www.w3.org/Graphics/SVG/1.1/DTD/svg11.dtd'>
<svg enable-background="new 0 0 210 210" version="1.1" viewBox="0 0 210 210" xml:space="preserve" xmlns="http://www.w3.org/2000/svg">

	<rect width="210" height="210" fill="#fff"/>
	<path d="m6.774 203.23h6.774v-6.774h-6.774v6.774m6.774 0h6.774v-6.774h-6.774v6.774m6.775 0h6.774v-6.774h-6.774v6.774m6.774 0h6.774v-6.774h-6.774v6.774m6.774 0h6.774v-6.774h-6.774v6.774m6.774 0h6.774v-6.774h-6.774v6.774m6.774 0h6.774v-6.774h-6.774v6.774m13.549 0h6.774v-6.774h-6.774v6.774m13.548 0h6.774v-6.774h-6.774v6.774m6.774 0h6.774v-6.774h-6.774v6.774m40.646 0h6.774v-6.774h-6.774v6.774m13.548 0h6.774v-6.774h-6.774v6.774m33.871 0h6.774v-6.774h-6.774v6.774m6.774 0h6.774v-6.774h-6.774v6.774m6.774 0h6.774v-6.774h-6.774v6.774m-176.13-6.775h6.774v-6.774h-6.774v6.774m40.645 0h6.774v-6.774h-6.774v6.774m13.549 0h6.774v-6.774h-6.774v6.774m6.774 0h6.774v-6.774h-6.774v6.774m6.774 0h6.774v-6.774h-6.774v6.774m6.774 0h6.774v-6.774h-6.774v6.774m20.323 0h6.774v-6.774h-6.774v6.774m13.549 0h6.774v-6.774h-6.774v6.774m20.322 0h6.774v-6.774h-6.774v6.774m6.774 0h6.774v-6.774h-6.774v6.774m20.323 0h6.774v-6.774h-6.774v6.774m13.548 0h6.774v-6.774h-6.774v6.774m13.548 0h6.774v-6.774h-6.774v6.774m-182.9-6.774h6.774v-6.773h-6.774v6.773m13.549 0h6.774v-6.773h-6.774v6.773m6.774 0h6.774v-6.773h-6.774v6.773m6.774 0h6.774v-6.773h-6.774v6.773m13.548 0h6.774v-6.773h-6.774v6.773m13.549 0h6.774v-6.773h-6.774v6.773m6.774 0h6.774v-6.773h-6.774v6.773m6.774 0h6.774v-6.773h-6.774v6.773m6.774 0h6.774v-6.773h-6.774v6.773m6.774 0h6.774v-6.773h-6.774v6.773m20.323 0h6.774v-6.773h-6.774v6.773m27.097 0h6.774v-6.773h-6.774v6.773m13.548 0h6.774v-6.773h-6.774v6.773m6.775 0h6.774v-6.773h-6.774v6.773m6.774 0h6.774v-6.773h-6.774v6.773m6.774 0h6.774v-6.773h-6.774v6.773m6.774 0h6.774v-6.773h-6.774v6.773m13.548 0h6.774v-6.773h-6.774v6.773m-182.9-6.774h6.774v-6.774h-6.774v6.774m13.549 0h6.774v-6.774h-6.774v6.774m6.774 0h6.774v-6.774h-6.774v6.774m6.774 0h6.774v-6.774h-6.774v6.774m13.548 0h6.774v-6.774h-6.774v6.774m13.549 0h6.774v-6.774h-6.774v6.774m6.774 0h6.774v-6.774h-6.774v6.774m47.42 0h6.774v-6.774h-6.774v6.774m13.548 0h6.774v-6.774h-6.774v6.774m47.419 0h6.774v-6.774h-6.774v6.774m13.548 0h6.774v-6.774h-6.774v6.774m6.775 0h6.774v-6.774h-6.774v6.774m-189.68-6.774h6.774v-6.774h-6.774v6.774m13.549 0h6.774v-6.774h-6.774v6.774m6.774 0h6.774v-6.774h-6.774v6.774m6.774 0h6.774v-6.774h-6.774v6.774m13.548 0h6.774v-6.774h-6.774v6.774m13.549 0h6.774v-6.774h-6.774v6.774m27.096 0h6.774v-6.774h-6.774v6.774m13.549 0h6.774v-6.774h-6.774v6.774m6.774 0h6.774v-6.774h-6.774v6.774m6.775 0h6.774v-6.774h-6.774v6.774m6.774 0h6.774v-6.774h-6.774v6.774m20.322 0h6.774v-6.774h-6.774v6.774m6.774 0h6.774v-6.774h-6.774v6.774m6.775 0h6.774v-6.774h-6.774v6.774m6.774 0h6.774v-6.774h-6.774v6.774m6.774 0h6.774v-6.774h-6.774v6.774m13.548 0h6.774v-6.774h-6.774v6.774m6.774 0h6.774v-6.774h-6.774v6.774m-182.9-6.775h6.774v-6.774h-6.774v6.774m40.645 0h6.774v-6.774h-6.774v6.774m40.645 0h6.774v-6.774h-6.774v6.774m6.774 0h6.774v-6.774h-6.774v6.774m13.549 0h6.774v-6.774h-6.774v6.774m6.775 0h6.774v-6.774h-6.774v6.774m27.096 0h6.774v-6.774h-6.774v6.774m27.097 0h6.774v-6.774h-6.774v6.774m6.774 0h6.774v-6.774h-6.774v6.774m20.323 0h6.774v-6.774h-6.774v6.774m-189.68-6.774h6.774v-6.773h-6.774v6.773m6.774 0h6.774v-6.773h-6.774v6.773m6.775 0h6.774v-6.773h-6.774v6.773m6.774 0h6.774v-6.773h-6.774v6.773m6.774 0h6.774v-6.773h-6.774v6.773m6.774 0h6.774v-6.773h-6.774v6.773m6.774 0h6.774v-6.773h-6.774v6.773m13.549 0h6.774v-6.773h-6.774v6.773m13.548 0h6.774v-6.773h-6.774v6.773m20.322 0h6.774v-6.773h-6.774v6.773m6.775 0h6.774v-6.773h-6.774v6.773m6.774 0h6.774v-6.773h-6.774v6.773m13.549 0h6.774v-6.773h-6.774v6.773m6.774 0h6.774v-6.773h-6.774v6.773m6.774 0h6.774v-6.773h-6.774v6.773m6.774 0h6.774v-6.773h-6.774v6.773m13.549 0h6.774v-6.773h-6.774v6.773m13.548 0h6.774v-6.773h-6.774v6.773m-108.39-6.773h6.774v-6.774h-6.774v6.774m6.774 0h6.774v-6.774h-6.774v6.774m6.774 0h6.774v-6.774h-6.774v6.774m13.548 0h6.774v-6.774h-6.774v6.774m6.774 0h6.774v-6.774h-6.774v6.774m6.775 0h6.774v-6.774h-6.774v6.774m13.549 0h6.774v-6.774h-6.774v6.774m13.548 0h6.774v-6.774h-6.774v6.774m13.548 0h6.774v-6.774h-6.774v6.774m27.097 0h6.774v-6.774h-6.774v6.774m6.774 0h6.774v-6.774h-6.774v6.774m13.548 0h6.774v-6.774h-6.774v6.774m6.775 0h6.774v-6.774h-6.774v6.774m-189.68-6.775h6.774v-6.773h-6.774v6.773m13.549 0h6.774v-6.773h-6.774v6.773m6.774 0h6.774v-6.773h-6.774v6.773m6.774 0h6.774v-6.773h-6.774v6.773m6.774 0h6.774v-6.773h-6.774v6.773m6.774 0h6.774v-6.773h-6.774v6.773m20.323 0h6.774v-6.773h-6.774v6.773m13.548 0h6.774v-6.773h-6.774v6.773m27.097 0h6.774v-6.773h-6.774v6.773m13.549 0h6.774v-6.773h-6.774v6.773m13.548 0h6.774v-6.773h-6.774v6.773m6.774 0h6.774v-6.773h-6.774v6.773m6.774 0h6.774v-6.773h-6.774v6.773m6.775 0h6.774v-6.773h-6.774v6.773m6.774 0h6.774v-6.773h-6.774v6.773m6.774 0h6.774v-6.773h-6.774v6.773m13.548 0h6.774v-6.773h-6.774v6.773m-176.13-6.773h6.774v-6.774h-6.774v6.774m13.549 0h6.774v-6.774h-6.774v6.774m13.548 0h6.774v-6.774h-6.774v6.774m6.774 0h6.774v-6.774h-6.774v6.774m13.548 0h6.774v-6.774h-6.774v6.774m13.549 0h6.774v-6.774h-6.774v6.774m13.548 0h6.774v-6.774h-6.774v6.774m20.323 0h6.774v-6.774h-6.774v6.774m6.774 0h6.774v-6.774h-6.774v6.774m6.775 0h6.774v-6.774h-6.774v6.774m13.548 0h6.774v-6.774h-6.774v6.774m6.774 0h6.774v-6.774h-6.774v6.774m6.774 0h6.774v-6.774h-6.774v6.774m6.774 0h6.774v-6.774h-6.774v6.774m6.775 0h6.774v-6.774h-6.774v6.774m20.322 0h6.774v-6.774h-6.774v6.774m13.548 0h6.774v-6.774h-6.774v6.774m-182.9-6.775h6.774v-6.774h-6.774v6.774m13.549 0h6.774v-6.774h-6.774v6.774m13.548 0h6.774v-6.774h-6.774v6.774m13.548 0h6.774v-6.774h-6.774v6.774m13.549 0h6.774v-6.774h-6.774v6.774m13.548 0h6.774v-6.774h-6.774v6.774m6.774 0h6.774v-6.774h-6.774v6.774m6.774 0h6.774v-6.774h-6.774v6.774m20.323 0h6.774v-6.774h-6.774v6.774m6.775 0h6.774v-6.774h-6.774v6.774m6.774 0h6.774v-6.774h-6.774v6.774m20.322 0h6.774v-6.774h-6.774v6.774m13.549 0h6.774v-6.774h-6.774v6.774m13.548 0h6.774v-6.774h-6.774v6.774m6.774 0h6.774v-6.774h-6.774v6.774m-169.36-6.774h6.774v-6.774h-6.774v6.774m27.097 0h6.774v-6.774h-6.774v6.774m20.322 0h6.774v-6.774h-6.774v6.774m20.323 0h6.774v-6.774h-6.774v6.774m40.646 0h6.774v-6.774h-6.774v6.774m20.322 0h6.774v-6.774h-6.774v6.774m6.774 0h6.774v-6.774h-6.774v6.774m6.774 0h6.774v-6.774h-6.774v6.774m6.775 0h6.774v-6.774h-6.774v6.774m6.774 0h6.774v-6.774h-6.774v6.774m6.774 0h6.774v-6.774h-6.774v6.774m13.548 0h6.774v-6.774h-6.774v6.774m6.774 0h6.774v-6.774h-6.774v6.774m6.775 0h6.774v-6.774h-6.774v6.774m-189.68-6.774h6.774v-6.774h-6.774v6.774m13.549 0h6.774v-6.774h-6.774v6.774m13.548 0h6.774v-6.774h-6.774v6.774m6.774 0h6.774v-6.774h-6.774v6.774m6.774 0h6.774v-6.774h-6.774v6.774m20.323 0h6.774v-6.774h-6.774v6.774m6.774 0h6.774v-6.774h-6.774v6.774m13.548 0h6.774v-6.774h-6.774v6.774m13.549 0h6.774v-6.774h-6.774v6.774m6.774 0h6.774v-6.774h-6.774v6.774m6.775 0h6.774v-6.774h-6.774v6.774m6.774 0h6.774v-6.774h-6.774v6.774m60.967 0h6.774v-6.774h-6.774v6.774m-176.13-6.775h6.774v-6.774h-6.774v6.774m20.323 0h6.774v-6.774h-6.774v6.774m47.419 0h6.774v-6.774h-6.774v6.774m13.548 0h6.774v-6.774h-6.774v6.774m6.774 0h6.774v-6.774h-6.774v6.774m33.872 0h6.774v-6.774h-6.774v6.774m6.774 0h6.774v-6.774h-6.774v6.774m13.548 0h6.774v-6.774h-6.774v6.774m6.775 0h6.774v-6.774h-6.774v6.774m13.548 0h6.774v-6.774h-6.774v6.774m6.774 0h6.774v-6.774h-6.774v6.774m-169.36-6.774h6.774v-6.773h-6.774v6.773m6.774 0h6.774v-6.773h-6.774v6.773m6.775 0h6.774v-6.773h-6.774v6.773m27.096 0h6.774v-6.773h-6.774v6.773m6.774 0h6.774v-6.773h-6.774v6.773m13.549 0h6.774v-6.773h-6.774v6.773m27.096 0h6.774v-6.773h-6.774v6.773m6.775 0h6.774v-6.773h-6.774v6.773m6.774 0h6.774v-6.773h-6.774v6.773m33.871 0h6.774v-6.773h-6.774v6.773m13.549 0h6.774v-6.773h-6.774v6.773m6.774 0h6.774v-6.773h-6.774v6.773m6.774 0h6.774v-6.773h-6.774v6.773m20.322 0h6.774v-6.773h-6.774v6.773m-176.13-6.774h6.774v-6.774h-6.774v6.774m6.775 0h6.774v-6.774h-6.774v6.774m13.548 0h6.774v-6.774h-6.774v6.774m27.097 0h6.774v-6.774h-6.774v6.774m6.774 0h6.774v-6.774h-6.774v6.774m6.774 0h6.774v-6.774h-6.774v6.774m13.548 0h6.774v-6.774h-6.774v6.774m6.774 0h6.774v-6.774h-6.774v6.774m6.775 0h6.774v-6.774h-6.774v6.774m13.549 0h6.774v-6.774h-6.774v6.774m13.548 0h6.774v-6.774h-6.774v6.774m6.774 0h6.774v-6.774h-6.774v6.774m6.774 0h6.774v-6.774h-6.774v6.774m6.774 0h6.774v-6.774h-6.774v6.774m6.775 0h6.774v-6.774h-6.774v6.774m6.774 0h6.774v-6.774h-6.774v6.774m6.774 0h6.774v-6.774h-6.774v6.774m6.774 0h6.774v-6.774h-6.774v6.774m6.774 0h6.774v-6.774h-6.774v6.774m6.774 0h6.774v-6.774h-6.774v6.774m6.775 0h6.774v-6.774h-6.774v6.774m-189.68-6.774h6.774v-6.774h-6.774v6.774m20.323 0h6.774v-6.774h-6.774v6.774m13.548 0h6.774v-6.774h-6.774v6.774m6.774 0h6.774v-6.774h-6.774v6.774m6.774 0h6.774v-6.774h-6.774v6.774m6.775 0h6.774v-6.774h-6.774v6.774m6.774 0h6.774v-6.774h-6.774v6.774m13.548 0h6.774v-6.774h-6.774v6.774m27.097 0h6.774v-6.774h-6.774v6.774m6.775 0h6.774v-6.774h-6.774v6.774m6.774 0h6.774v-6.774h-6.774v6.774m20.322 0h6.774v-6.774h-6.774v6.774m6.774 0h6.774v-6.774h-6.774v6.774m13.549 0h6.774v-6.774h-6.774v6.774m20.322 0h6.774v-6.774h-6.774v6.774m13.549 0h6.774v-6.774h-6.774v6.774m-189.68-6.775h6.774v-6.774h-6.774v6.774m13.549 0h6.774v-6.774h-6.774v6.774m6.774 0h6.774v-6.774h-6.774v6.774m33.871 0h6.774v-6.774h-6.774v6.774m6.774 0h6.774v-6.774h-6.774v6.774m6.774 0h6.774v-6.774h-6.774v6.774m6.774 0h6.774v-6.774h-6.774v6.774m20.323 0h6.774v-6.774h-6.774v6.774m6.774 0h6.774v-6.774h-6.774v6.774m33.871 0h6.774v-6.774h-6.774v6.774m27.097 0h6.774v-6.774h-6.774v6.774m6.774 0h6.774v-6.774h-6.774v6.774m13.548 0h6.774v-6.774h-6.774v6.774m6.775 0h6.774v-6.774h-6.774v6.774m-182.9-6.774h6.774v-6.774h-6.774v6.774m33.871 0h6.774v-6.774h-6.774v6.774m6.774 0h6.774v-6.774h-6.774v6.774m6.775 0h6.774v-6.774h-6.774v6.774m6.774 0h6.774v-6.774h-6.774v6.774m13.548 0h6.774v-6.774h-6.774v6.774m6.774 0h6.774v-6.774h-6.774v6.774m20.323 0h6.774v-6.774h-6.774v6.774m13.549 0h6.774v-6.774h-6.774v6.774m20.322 0h6.774v-6.774h-6.774v6.774m33.871 0h6.774v-6.774h-6.774v6.774m6.774 0h6.774v-6.774h-6.774v6.774m-176.13-6.774h6.774v-6.774h-6.774v6.774m6.774 0h6.774v-6.774h-6.774v6.774m6.775 0h6.774v-6.774h-6.774v6.774m6.774 0h6.774v-6.774h-6.774v6.774m6.774 0h6.774v-6.774h-6.774v6.774m6.774 0h6.774v-6.774h-6.774v6.774m13.548 0h6.774v-6.774h-6.774v6.774m13.549 0h6.774v-6.774h-6.774v6.774m47.42 0h6.774v-6.774h-6.774v6.774m6.774 0h6.774v-6.774h-6.774v6.774m6.774 0h6.774v-6.774h-6.774v6.774m6.774 0h6.774v-6.774h-6.774v6.774m6.774 0h6.774v-6.774h-6.774v6.774m6.774 0h6.774v-6.774h-6.774v6.774m6.775 0h6.774v-6.774h-6.774v6.774m6.774 0h6.774v-6.774h-6.774v6.774m6.774 0h6.774v-6.774h-6.774v6.774m27.097 0h6.774v-6.774h-6.774v6.774m-189.68-6.775h6.774v-6.773h-6.774v6.773m6.774 0h6.774v-6.773h-6.774v6.773m6.775 0h6.774v-6.773h-6.774v6.773m6.774 0h6.774v-6.773h-6.774v6.773m6.774 0h6.774v-6.773h-6.774v6.773m13.548 0h6.774v-6.773h-6.774v6.773m6.774 0h6.774v-6.773h-6.774v6.773m6.775 0h6.774v-6.773h-6.774v6.773m6.774 0h6.774v-6.773h-6.774v6.773m6.774 0h6.774v-6.773h-6.774v6.773m13.548 0h6.774v-6.773h-6.774v6.773m13.549 0h6.774v-6.773h-6.774v6.773m13.549 0h6.774v-6.773h-6.774v6.773m6.774 0h6.774v-6.773h-6.774v6.773m6.774 0h6.774v-6.773h-6.774v6.773m13.548 0h6.774v-6.773h-6.774v6.773m6.774 0h6.774v-6.773h-6.774v6.773m13.549 0h6.774v-6.773h-6.774v6.773m13.548 0h6.774v-6.773h-6.774v6.773m13.548 0h6.774v-6.773h-6.774v6.773m-101.61-6.773h6.774v-6.774h-6.774v6.774m6.774 0h6.774v-6.774h-6.774v6.774m13.549 0h6.774v-6.774h-6.774v6.774m27.097 0h6.774v-6.774h-6.774v6.774m-128.71-6.775h6.774v-6.773h-6.774v6.773m6.774 0h6.774v-6.773h-6.774v6.773m6.775 0h6.774v-6.773h-6.774v6.773m6.774 0h6.774v-6.773h-6.774v6.773m6.774 0h6.774v-6.773h-6.774v6.773m6.774 0h6.774v-6.773h-6.774v6.773m6.774 0h6.774v-6.773h-6.774v6.773m13.549 0h6.774v-6.773h-6.774v6.773m13.548 0h6.774v-6.773h-6.774v6.773m13.548 0h6.774v-6.773h-6.774v6.773m13.549 0h6.774v-6.773h-6.774v6.773m13.549 0h6.774v-6.773h-6.774v6.773m13.548 0h6.774v-6.773h-6.774v6.773m13.548 0h6.774v-6.773h-6.774v6.773m13.549 0h6.774v-6.773h-6.774v6.773m6.774 0h6.774v-6.773h-6.774v6.773m6.774 0h6.774v-6.773h-6.774v6.773m6.774 0h6.774v-6.773h-6.774v6.773m6.774 0h6.774v-6.773h-6.774v6.773m6.774 0h6.774v-6.773h-6.774v6.773m6.775 0h6.774v-6.773h-6.774v6.773m-189.68-6.773h6.774v-6.774h-6.774v6.774m40.645 0h6.774v-6.774h-6.774v6.774m13.549 0h6.774v-6.774h-6.774v6.774m13.548 0h6.774v-6.774h-6.774v6.774m20.322 0h6.774v-6.774h-6.774v6.774m6.775 0h6.774v-6.774h-6.774v6.774m6.774 0h6.774v-6.774h-6.774v6.774m6.775 0h6.774v-6.774h-6.774v6.774m6.774 0h6.774v-6.774h-6.774v6.774m20.322 0h6.774v-6.774h-6.774v6.774m13.549 0h6.774v-6.774h-6.774v6.774m40.645 0h6.774v-6.774h-6.774v6.774m-189.68-6.774h6.774v-6.774h-6.774v6.774m13.549 0h6.774v-6.774h-6.774v6.774m6.774 0h6.774v-6.774h-6.774v6.774m6.774 0h6.774v-6.774h-6.774v6.774m13.548 0h6.774v-6.774h-6.774v6.774m27.097 0h6.774v-6.774h-6.774v6.774m13.548 0h6.774v-6.774h-6.774v6.774m6.774 0h6.774v-6.774h-6.774v6.774m6.775 0h6.774v-6.774h-6.774v6.774m6.774 0h6.774v-6.774h-6.774v6.774m13.549 0h6.774v-6.774h-6.774v6.774m6.774 0h6.774v-6.774h-6.774v6.774m6.774 0h6.774v-6.774h-6.774v6.774m6.774 0h6.774v-6.774h-6.774v6.774m13.549 0h6.774v-6.774h-6.774v6.774m13.548 0h6.774v-6.774h-6.774v6.774m6.774 0h6.774v-6.774h-6.774v6.774m6.774 0h6.774v-6.774h-6.774v6.774m13.549 0h6.774v-6.774h-6.774v6.774m-189.68-6.775h6.774v-6.774h-6.774v6.774m13.549 0h6.774v-6.774h-6.774v6.774m6.774 0h6.774v-6.774h-6.774v6.774m6.774 0h6.774v-6.774h-6.774v6.774m13.548 0h6.774v-6.774h-6.774v6.774m13.549 0h6.774v-6.774h-6.774v6.774m6.774 0h6.774v-6.774h-6.774v6.774m13.548 0h6.774v-6.774h-6.774v6.774m40.646 0h6.774v-6.774h-6.774v6.774m13.548 0h6.774v-6.774h-6.774v6.774m6.774 0h6.774v-6.774h-6.774v6.774m13.549 0h6.774v-6.774h-6.774v6.774m13.548 0h6.774v-6.774h-6.774v6.774m6.774 0h6.774v-6.774h-6.774v6.774m6.774 0h6.774v-6.774h-6.774v6.774m13.549 0h6.774v-6.774h-6.774v6.774m-189.68-6.774h6.774v-6.773h-6.774v6.773m13.549 0h6.774v-6.773h-6.774v6.773m6.774 0h6.774v-6.773h-6.774v6.773m6.774 0h6.774v-6.773h-6.774v6.773m13.548 0h6.774v-6.773h-6.774v6.773m20.323 0h6.774v-6.773h-6.774v6.773m6.774 0h6.774v-6.773h-6.774v6.773m6.774 0h6.774v-6.773h-6.774v6.773m20.323 0h6.774v-6.773h-6.774v6.773m13.549 0h6.774v-6.773h-6.774v6.773m40.645 0h6.774v-6.773h-6.774v6.773m13.548 0h6.774v-6.773h-6.774v6.773m6.774 0h6.774v-6.773h-6.774v6.773m6.774 0h6.774v-6.773h-6.774v6.773m13.549 0h6.774v-6.773h-6.774v6.773m-189.68-6.774h6.774v-6.774h-6.774v6.774m40.645 0h6.774v-6.774h-6.774v6.774m13.549 0h6.774v-6.774h-6.774v6.774m6.774 0h6.774v-6.774h-6.774v6.774m13.548 0h6.774v-6.774h-6.774v6.774m6.774 0h6.774v-6.774h-6.774v6.774m40.646 0h6.774v-6.774h-6.774v6.774m13.548 0h6.774v-6.774h-6.774v6.774m13.549 0h6.774v-6.774h-6.774v6.774m40.645 0h6.774v-6.774h-6.774v6.774m-189.68-6.774h6.774v-6.775h-6.774v6.775m6.774 0h6.774v-6.775h-6.774v6.775m6.775 0h6.774v-6.775h-6.774v6.775m6.774 0h6.774v-6.775h-6.774v6.775m6.774 0h6.774v-6.775h-6.774v6.775m6.774 0h6.774v-6.775h-6.774v6.775m6.774 0h6.774v-6.775h-6.774v6.775m20.323 0h6.774v-6.775h-6.774v6.775m40.645 0h6.774v-6.775h-6.774v6.775m6.775 0h6.774v-6.775h-6.774v6.775m6.774 0h6.774v-6.775h-6.774v6.775m6.774 0h6.774v-6.775h-6.774v6.775m6.774 0h6.774v-6.775h-6.774v6.775m6.774 0h6.774v-6.775h-6.774v6.775m13.549 0h6.774v-6.775h-6.774v6.775m6.774 0h6.774v-6.775h-6.774v6.775m6.774 0h6.774v-6.775h-6.774v6.775m6.774 0h6.774v-6.775h-6.774v6.775m6.774 0h6.774v-6.775h-6.774v6.775m6.774 0h6.774v-6.775h-6.774v6.775m6.775 0h6.774v-6.775h-6.774v6.775z"/>

</svg>
