<?xml version="1.0" encoding="UTF-8" standalone="no"?>
<!DOCTYPE svg PUBLIC "-//W3C//DTD SVG 1.1//EN" "http://www.w3.org/Graphics/SVG/1.1/DTD/svg11.dtd">
<svg width="100%" height="100%" viewBox="0 0 256 256" version="1.1" xmlns="http://www.w3.org/2000/svg" xmlns:xlink="http://www.w3.org/1999/xlink" xml:space="preserve" xmlns:serif="http://www.serif.com/" style="fill-rule:evenodd;clip-rule:evenodd;">
    <g transform="matrix(1,0,0,1,-3,-3)">
        <clipPath id="_clip1">
            <rect x="3.011" y="2.982" width="30.993" height="31.008"/>
        </clipPath>
        <g clip-path="url(#_clip1)">
            <path d="M4,4.5L11,4.5M13,4.5L14,4.5M17,4.5L18,4.5M20,4.5L21,4.5M23,4.5L25,4.5M26,4.5L33,4.5M4,5.5L5,5.5M10,5.5L11,5.5M18,5.5L21,5.5M22,5.5L23,5.5M24,5.5L25,5.5M26,5.5L27,5.5M32,5.5L33,5.5M4,6.5L5,6.5M6,6.5L9,6.5M10,6.5L11,6.5M12,6.5L13,6.5M14,6.5L16,6.5M19,6.5L21,6.5M22,6.5L23,6.5M26,6.5L27,6.5M28,6.5L31,6.5M32,6.5L33,6.5M4,7.5L5,7.5M6,7.5L9,7.5M10,7.5L11,7.5M12,7.5L15,7.5M16,7.5L17,7.5M21,7.5L22,7.5M26,7.5L27,7.5M28,7.5L31,7.5M32,7.5L33,7.5M4,8.5L5,8.5M6,8.5L9,8.5M10,8.5L11,8.5M12,8.5L14,8.5M15,8.5L16,8.5M17,8.5L18,8.5M20,8.5L21,8.5M23,8.5L25,8.5M26,8.5L27,8.5M28,8.5L31,8.5M32,8.5L33,8.5M4,9.5L5,9.5M10,9.5L11,9.5M12,9.5L13,9.5M15,9.5L20,9.5M21,9.5L23,9.5M24,9.5L25,9.5M26,9.5L27,9.5M32,9.5L33,9.5M4,10.5L11,10.5M12,10.5L13,10.5M14,10.5L15,10.5M16,10.5L17,10.5M18,10.5L19,10.5M20,10.5L21,10.5M22,10.5L23,10.5M24,10.5L25,10.5M26,10.5L33,10.5M12,11.5L13,11.5M14,11.5L16,11.5M17,11.5L18,11.5M19,11.5L21,11.5M24,11.5L25,11.5M4,12.5L5,12.5M6,12.5L11,12.5M13,12.5L14,12.5M15,12.5L16,12.5M18,12.5L24,12.5M26,12.5L31,12.5M4,13.5L5,13.5M6,13.5L8,13.5M11,13.5L12,13.5M13,13.5L16,13.5M20,13.5L30,13.5M31,13.5L33,13.5M4,14.5L6,14.5M7,14.5L9,14.5M10,14.5L13,14.5M15,14.5L16,14.5M19,14.5L20,14.5M21,14.5L22,14.5M24,14.5L27,14.5M4,15.5L5,15.5M7,15.5L10,15.5M13,15.5L14,15.5M16,15.5L17,15.5M18,15.5L20,15.5M23,15.5L25,15.5M27,15.5L28,15.5M29,15.5L30,15.5M4,16.5L5,16.5M10,16.5L14,16.5M15,16.5L17,16.5M21,16.5L22,16.5M23,16.5L24,16.5M30,16.5L33,16.5M6,17.5L8,17.5M12,17.5L14,17.5M16,17.5L19,17.5M20,17.5L21,17.5M22,17.5L27,17.5M28,17.5L30,17.5M31,17.5L33,17.5M4,18.5L7,18.5M8,18.5L11,18.5M15,18.5L20,18.5M21,18.5L22,18.5M26,18.5L30,18.5M8,19.5L10,19.5M13,19.5L16,19.5M17,19.5L18,19.5M20,19.5L21,19.5M22,19.5L23,19.5M24,19.5L25,19.5M26,19.5L27,19.5M29,19.5L30,19.5M31,19.5L32,19.5M5,20.5L6,20.5M7,20.5L15,20.5M16,20.5L17,20.5M18,20.5L19,20.5M21,20.5L22,20.5M24,20.5L26,20.5M27,20.5L28,20.5M29,20.5L31,20.5M32,20.5L33,20.5M4,21.5L5,21.5M6,21.5L8,21.5M9,21.5L10,21.5M11,21.5L14,21.5M15,21.5L17,21.5M23,21.5L29,21.5M31,21.5L33,21.5M4,22.5L5,22.5M6,22.5L11,22.5M14,22.5L17,22.5M19,22.5L20,22.5M21,22.5L23,22.5M24,22.5L25,22.5M26,22.5L28,22.5M29,22.5L31,22.5M4,23.5L5,23.5M6,23.5L7,23.5M8,23.5L9,23.5M13,23.5L15,23.5M18,23.5L19,23.5M20,23.5L21,23.5M22,23.5L25,23.5M26,23.5L27,23.5M28,23.5L29,23.5M32,23.5L33,23.5M4,24.5L5,24.5M6,24.5L7,24.5M8,24.5L12,24.5M13,24.5L15,24.5M21,24.5L22,24.5M23,24.5L29,24.5M30,24.5L32,24.5M12,25.5L13,25.5M14,25.5L15,25.5M17,25.5L19,25.5M20,25.5L23,25.5M24,25.5L25,25.5M28,25.5L31,25.5M32,25.5L33,25.5M4,26.5L11,26.5M13,26.5L14,26.5M15,26.5L16,26.5M17,26.5L22,26.5M23,26.5L25,26.5M26,26.5L27,26.5M28,26.5L29,26.5M30,26.5L31,26.5M4,27.5L5,27.5M10,27.5L11,27.5M12,27.5L13,27.5M15,27.5L18,27.5M20,27.5L21,27.5M23,27.5L25,27.5M28,27.5L30,27.5M4,28.5L5,28.5M6,28.5L9,28.5M10,28.5L11,28.5M12,28.5L13,28.5M14,28.5L17,28.5M18,28.5L19,28.5M21,28.5L22,28.5M24,28.5L29,28.5M30,28.5L31,28.5M4,29.5L5,29.5M6,29.5L9,29.5M10,29.5L11,29.5M12,29.5L15,29.5M16,29.5L18,29.5M20,29.5L21,29.5M24,29.5L25,29.5M27,29.5L28,29.5M31,29.5L33,29.5M4,30.5L5,30.5M6,30.5L9,30.5M10,30.5L11,30.5M12,30.5L13,30.5M19,30.5L23,30.5M26,30.5L32,30.5M4,31.5L5,31.5M10,31.5L11,31.5M14,31.5L15,31.5M17,31.5L18,31.5M23,31.5L26,31.5M27,31.5L30,31.5M31,31.5L32,31.5M4,32.5L11,32.5M12,32.5L15,32.5M18,32.5L20,32.5M21,32.5L22,32.5M23,32.5L24,32.5M25,32.5L26,32.5M27,32.5L31,32.5" style="fill-rule:nonzero;stroke:black;stroke-width:1px;"/>
        </g>
    </g>
</svg>
