<svg xmlns="http://www.w3.org/2000/svg" fill="none" viewBox="0 0 40 46" aria-hidden="true" focusable="false">
  <path fill="currentColor" d="M18.173 32.528v12.596L.001 34.633 0 13.638 18.172 24.13v4.198l-3.627-2.093-1.818-1.05-9.09-5.248v12.596l10.908 6.299v-4.2l-5.454-3.148v-4.199l9.082 5.243ZM19.993 16.795l-10.91-6.298 10.91-6.299 10.908 6.3-1.817 1.049-9.091 5.248Zm0-16.795L1.81 10.497l18.181 10.497 18.182-10.497L19.993 0ZM29.1 24.08l3.637-2.1 3.636-2.1v4.2L40 21.986v-8.35l-18.173 10.49v4.152h.001v16.796l-.01-.005v.058L40 34.63v-8.446l-3.627 2.095v4.198l-10.91 6.299.001-12.597 3.636-2.1Z"/>
</svg>
