<?xml version="1.0" encoding="utf-8"?>
<!DOCTYPE svg PUBLIC "-//W3C//DTD SVG 1.1//EN" "http://www.w3.org/Graphics/SVG/1.1/DTD/svg11.dtd">
<svg version="1.1" xmlns="http://www.w3.org/2000/svg" xmlns:xlink="http://www.w3.org/1999/xlink" x="0px" y="0px" width="103px"
	 height="30px" viewBox="0 0 103 30" enable-background="new 0 0 103 30" xml:space="preserve">
<g>
    <path fill="#FFFFFF" d="M72.185,10.479c0,2.999,2.433,5.432,5.431,5.432s5.431-2.433,5.431-5.432v-2.12
        c0-0.736,0.62-1.357,1.358-1.357c0.735,0,1.356,0.622,1.356,1.357v2.12c0,4.045-2.941,7.382-6.788,8.033v5.234
        c0,0.735-0.624,1.357-1.357,1.357c-0.735,0-1.357-0.622-1.357-1.357v-5.234c-3.847-0.651-6.789-3.988-6.789-8.033v-2.12
        c0-0.736,0.623-1.357,1.355-1.357c0.737,0,1.36,0.622,1.36,1.357V10.479z"/>
    <path fill="#FFFFFF" d="M36.702,16.957c0,2.998,2.433,5.432,5.431,5.432c2.999,0,5.432-2.434,5.432-5.432V8.358
        c0-0.736,0.623-1.357,1.357-1.357s1.357,0.622,1.357,1.357v8.599c0,4.498-3.648,8.146-8.146,8.146s-8.146-3.648-8.146-8.146V8.358
        c0-0.736,0.623-1.357,1.358-1.357c0.735,0,1.357,0.622,1.357,1.357V16.957z"/>
    <path fill="#FFFFFF" d="M57.913,14.242c0-3.989,3.254-7.242,7.241-7.242c0.735,0,1.357,0.623,1.357,1.358
        c0,0.735-0.622,1.358-1.357,1.358c-2.49,0-4.525,2.036-4.525,4.526v3.619c0,3.989-3.253,7.241-7.242,7.241
        c-0.734,0-1.357-0.621-1.357-1.356c0-0.736,0.623-1.357,1.357-1.357c2.49,0,4.526-2.037,4.526-4.527V14.242z"/>
    <path fill="#FFFFFF" d="M29.147,20.125c-0.368,0-0.652,0.198-0.906,0.453c-1.16,1.159-2.771,1.811-4.525,1.811
        c-3.507,0-6.336-2.829-6.336-6.336c0-3.508,2.829-6.336,6.336-6.336c1.754,0,3.366,0.65,4.525,1.81
        c0.254,0.254,0.538,0.453,0.906,0.453c0.763,0,1.357-0.595,1.357-1.357c0-0.368-0.142-0.707-0.396-0.962
        c-1.782-1.754-4.074-2.658-6.393-2.658c-5.006,0-9.051,4.044-9.051,9.052c0,5.007,4.044,9.051,9.051,9.051
        c2.319,0,4.611-0.904,6.393-2.659c0.253-0.255,0.396-0.594,0.396-0.962C30.504,20.718,29.91,20.125,29.147,20.125"/>
    <path fill="#FFFFFF" d="M0.396,22.784C0.141,23.037,0,23.404,0,23.746c0,0.764,0.593,1.356,1.357,1.356
        c0.369,0,0.707-0.142,0.963-0.396l7.693-7.694c0.255-0.254,0.396-0.593,0.396-0.962c0-0.339-0.142-0.706-0.396-0.961L2.32,7.396
        C2.064,7.143,1.726,7.001,1.357,7.001C0.593,7.001,0,7.594,0,8.357C0,8.725,0.141,9.065,0.396,9.32l6.733,6.73L0.396,22.784z"/>
    <path fill="#FFFFFF" d="M101.602,29.333c0.734,0,1.357-0.623,1.357-1.357c0-0.736-0.623-1.356-1.357-1.356H89.835
        c-0.736,0-1.357,0.62-1.357,1.356c0,0.734,0.621,1.357,1.357,1.357H101.602z"/>
</g>
</svg>
